<?xml version="1.0" standalone="no"?>
<!DOCTYPE svg PUBLIC "-//W3C//DTD SVG 1.1//EN" "http://www.w3.org/Graphics/SVG/1.1/DTD/svg11.dtd" >
<svg xmlns="http://www.w3.org/2000/svg">
<metadata></metadata>
<defs>
<font id="omnessemibold" horiz-adv-x="522" >
<font-face units-per-em="2048" ascent="1638" descent="-410" />
<missing-glyph horiz-adv-x="348" />
<glyph horiz-adv-x="0" />
<glyph horiz-adv-x="0" />
<glyph unicode="&#xd;" horiz-adv-x="512" />
<glyph unicode=" "  horiz-adv-x="348" />
<glyph unicode="&#x09;" horiz-adv-x="348" />
<glyph unicode="&#xa0;" horiz-adv-x="348" />
<glyph unicode="!" horiz-adv-x="567" d="M115 1161q-18 86 22.5 134t118.5 48h51q82 0 123 -48t23 -134l-80 -657q-10 -47 -26.5 -70.5t-49.5 -23.5h-31q-29 0 -45 23.5t-26 70.5zM127 121v29q0 135 137 135h35q139 0 139 -135v-29q0 -135 -139 -135h-35q-137 0 -137 135z" />
<glyph unicode="&#x22;" horiz-adv-x="880" d="M96 1184q-25 156 146 155q90 0 124.5 -38.5t22.5 -116.5l-59 -383q-8 -37 -22.5 -55.5t-47.5 -18.5h-35q-33 0 -47 18.5t-20 55.5zM489 1184q-25 156 146 155q90 0 125 -38.5t22 -116.5l-61 -383q-6 -37 -20.5 -55.5t-47.5 -18.5h-35q-33 0 -48 18.5t-21 55.5z" />
<glyph unicode="#" horiz-adv-x="1390" d="M16 393v33q0 92 119 92h178l88 289h-110q-119 0 -119 92v33q0 90 119 90h178l96 313q4 12 33 13q18 0 39.5 -8.5t41 -25t33 -41t13.5 -59.5q0 -33 -14 -75l-37 -117h264l96 313q4 12 33 13q18 0 39.5 -8.5t41 -25t33 -41t13.5 -59.5q0 -33 -14 -75l-37 -117h112 q119 0 119 -90v-31q0 -94 -119 -94h-178l-88 -289h109q119 0 119 -90v-33q0 -92 -119 -92h-176l-97 -313q-4 -10 -32 -10q-18 0 -40 7t-41.5 23.5t-32.5 42t-13 60.5q0 14 3 32.5t11 40.5l35 117h-262l-97 -313q-4 -10 -32 -10q-18 0 -40 7t-41.5 23.5t-32.5 42t-13 60.5 q0 14 3 32.5t11 40.5l37 117h-113q-119 0 -119 90zM516 516h266l14 46q15 46 33 102q20 63 45 145h-268z" />
<glyph unicode="$" horiz-adv-x="1148" d="M66 256q0 33 15 60.5t34.5 47t37 29.5t19.5 6q59 -72 163.5 -122t225.5 -50q111 0 170.5 42t59.5 112q0 43 -23 70.5t-60.5 47t-88 34t-105.5 26.5q-68 14 -141.5 38t-135 66t-101.5 109.5t-40 167.5q0 147 97.5 247.5t263.5 131.5v76q0 72 27.5 105.5t88.5 33.5h13 q63 0 89.5 -34t26.5 -105v-70q172 -18 262.5 -86t90.5 -145q0 -35 -16.5 -64t-37 -49t-38 -29.5t-19.5 -7.5q-59 68 -151.5 113t-194.5 45q-104 0 -162.5 -42t-58.5 -112q0 -39 20.5 -66.5t56 -46t85 -31.5t108.5 -26q72 -14 148.5 -38.5t140 -67.5t105.5 -110.5t42 -168.5 q0 -156 -101 -257t-282 -130v-80q0 -139 -118 -139h-11q-66 0 -91 34t-25 105v76q-186 20 -287.5 94t-101.5 160z" />
<glyph unicode="%" horiz-adv-x="1511" d="M37 1012v16q0 70 24.5 128t69.5 100t107.5 66t136.5 24t135 -24t105 -64.5t69 -99t25 -128.5v-16q0 -70 -25 -128.5t-70 -100.5t-106 -65.5t-135 -23.5t-136.5 23.5t-106.5 64.5t-68.5 99.5t-24.5 128.5zM145 78q0 27 12.5 49.5t43.5 54.5l1030 1168q4 4 25.5 0t44 -16.5 t41 -33t18.5 -49.5q0 -23 -12.5 -48t-40.5 -58l-1033 -1168q-4 -4 -24.5 1.5t-44 18.5t-42 33.5t-18.5 47.5zM238 1006q0 -72 39 -112t98 -40t97 40t38 112v30q0 72 -39 112t-98 40t-97 -40t-38 -112v-30zM803 297v16q0 70 24.5 128.5t69.5 100.5t107.5 65.5t136.5 23.5 t135 -23.5t105 -64.5t69 -99.5t25 -128.5v-16q0 -70 -25 -128t-70 -100t-106 -65.5t-135 -23.5t-136.5 23.5t-106.5 64.5t-68.5 99t-24.5 128zM1004 291q0 -70 39 -110t98 -40q57 0 96 39t39 111v31q0 72 -39 112.5t-98 40.5t-97 -41t-38 -112v-31z" />
<glyph unicode="&#x26;" horiz-adv-x="1406" d="M39 373q0 139 82 231t227 141q-53 53 -87 119t-34 144q0 76 30 138t84 108t130 72t168 26q84 0 152.5 -23.5t117.5 -65.5t77 -100.5t28 -130.5q0 -113 -76 -193.5t-215 -125.5l252 -219q27 47 45 99t41 118q29 78 62.5 107.5t86.5 29.5q33 0 57.5 -11.5t41 -24.5 t23.5 -25.5t7 -16.5q-29 -121 -79 -227.5t-115 -198.5l268 -233q2 -2 -6 -21.5t-27.5 -42t-50.5 -42t-74 -19.5q-37 0 -81 16t-91 68l-92 90q-90 -88 -201.5 -137.5t-252.5 -49.5q-229 0 -363.5 102.5t-134.5 297.5zM299 401q0 -104 71.5 -162.5t186.5 -58.5q80 0 150.5 35 t126.5 94l-357 316q-80 -33 -129 -86.5t-49 -137.5zM489 1004q0 -55 25 -98.5t72 -86.5q104 31 150 78t46 113q0 63 -40 104t-105 41q-72 0 -110 -43t-38 -108z" />
<glyph unicode="'" horiz-adv-x="487" d="M96 1184q-25 156 146 155q90 0 124.5 -38.5t22.5 -116.5l-59 -383q-8 -37 -22.5 -55.5t-47.5 -18.5h-35q-33 0 -47 18.5t-20 55.5z" />
<glyph unicode="(" horiz-adv-x="829" d="M78 469q0 186 54 346t140 276.5t193.5 183t214.5 66.5q137 0 137 -122q0 -37 -20.5 -64t-28.5 -31q-98 -25 -173 -84t-125 -146t-76.5 -195.5t-26.5 -229.5q0 -123 26.5 -232.5t76.5 -195.5t125 -145.5t173 -83.5q8 -4 28.5 -31t20.5 -64q0 -123 -137 -123 q-106 0 -214 65t-194 181.5t-140 277.5t-54 351z" />
<glyph unicode=")" horiz-adv-x="829" d="M12 -283q0 37 20.5 63.5t28.5 31.5q98 25 173 84t125.5 145t77 195.5t26.5 232.5q0 121 -26.5 229.5t-77 195.5t-125 146.5t-173.5 83.5q-8 4 -28.5 31t-20.5 64q0 123 138 122q106 0 213.5 -66.5t193.5 -183t140.5 -276.5t54.5 -346q0 -190 -54.5 -351t-140.5 -277.5 t-193.5 -181.5t-213.5 -65q-137 0 -138 123z" />
<glyph unicode="*" horiz-adv-x="841" d="M41 1020q-8 20 2 57l2 8q10 35 30.5 47.5t67.5 4.5l179 -37l20 172q8 49 26.5 63.5t53.5 14.5h8q33 0 52.5 -14.5t27.5 -63.5l16 -172l176 37q47 8 69 -6.5t32 -45.5l2 -8q10 -35 2 -56.5t-51 -43.5l-162 -74l92 -160q23 -43 13.5 -68.5t-33.5 -41.5l-7 -4 q-23 -16 -48 -17.5t-60 33.5l-127 139l-127 -139q-35 -35 -58.5 -34t-52.5 18l-6 4q-29 16 -35 41.5t17 68.5l90 160l-160 74q-43 23 -51 43z" />
<glyph unicode="+" horiz-adv-x="1097" d="M57 524v15q0 45 29 72.5t90 27.5h258v264q0 61 29 90t76 29h22q43 0 73 -28.5t30 -90.5v-264h258q63 0 90.5 -27.5t27.5 -72.5v-15q0 -47 -27.5 -74.5t-90.5 -27.5h-258v-279q0 -61 -30 -89.5t-73 -28.5h-22q-47 0 -76 28.5t-29 89.5v279h-258q-61 0 -90 27.5t-29 74.5z " />
<glyph unicode="," horiz-adv-x="489" d="M23 -160l92 326q16 63 40.5 94t96.5 31h31q53 0 83.5 -30t30.5 -95v-12q0 -37 -14 -74t-51 -80l-162 -225q-18 -20 -46 -24.5t-52.5 4.5t-40 32t-8.5 53z" />
<glyph unicode="-" horiz-adv-x="876" d="M74 479v43q0 47 29.5 79t89.5 32h491q59 0 89 -32t30 -79v-43q0 -47 -30 -78.5t-89 -31.5h-491q-59 0 -89 31.5t-30 78.5z" />
<glyph unicode="." horiz-adv-x="489" d="M88 121v29q0 135 135 135h37q139 0 139 -135v-29q0 -135 -139 -135h-37q-135 0 -135 135z" />
<glyph unicode="/" horiz-adv-x="735" d="M-6 -313q0 31 16 86l494 1562q0 4 18.5 7.5t42.5 3.5q23 0 48.5 -4.5t48 -16.5t37 -34.5t14.5 -59.5q0 -27 -17 -86l-491 -1563q-2 -4 -20.5 -7t-41.5 -3t-49 4t-48.5 16.5t-37 35t-14.5 59.5z" />
<glyph unicode="0" horiz-adv-x="1316" d="M78 596v131q0 143 40 259t115.5 197t183 125t242.5 44t243 -43t182.5 -124t114.5 -197t40 -259v-131q0 -143 -40 -259t-114.5 -197t-183.5 -125t-244 -44t-242.5 43t-182 124t-114.5 197t-40 259zM383 580q0 -176 70.5 -268.5t205.5 -92.5t206 91t71 268v170 q0 176 -71.5 269t-207.5 93q-135 0 -204.5 -91t-69.5 -269v-170z" />
<glyph unicode="1" horiz-adv-x="800" d="M37 1087q0 37 11 65t25.5 46.5t28 26.5t15.5 6q29 -23 57.5 -34t67.5 -11q66 0 115 42t59 111h88q133 0 133 -139v-1075q0 -139 -133 -139h-37q-129 0 -129 139v829q-57 -37 -119 -36q-80 0 -131 47t-51 122z" />
<glyph unicode="2" horiz-adv-x="1134" d="M70 154v63q0 94 36.5 167t96 128t132.5 97t142 77q61 29 116.5 54.5t96.5 53t65.5 61.5t24.5 77q0 86 -57 132t-166 46q-63 0 -111.5 -19.5t-84 -52t-57 -74.5t-34.5 -87q0 -2 -30.5 -2.5t-67.5 12t-67.5 42t-30.5 87.5q0 61 32.5 121.5t96 108.5t157 78t215.5 30 q240 0 369 -109.5t129 -302.5q0 -92 -31.5 -156.5t-84 -111.5t-120 -81t-141.5 -65q-70 -29 -129 -57.5t-104 -60t-76 -71.5t-41 -93q78 0 168 1t176 1h155.5h102.5q78 0 111 -30t33 -85v-12q0 -59 -33 -90t-111 -31h-696q-102 0 -142 30.5t-40 123.5z" />
<glyph unicode="3" horiz-adv-x="1153" d="M29 274q0 57 27.5 88t60.5 45.5t61.5 14.5t28.5 -4q33 -104 119 -157.5t209 -53.5t192.5 50t69.5 138q0 182 -236 183h-69q-76 0 -109 26.5t-33 75.5v16q0 102 137 103h99q92 0 140 41t48 112q0 78 -63.5 123t-178.5 45q-63 0 -112 -16.5t-85 -42t-60.5 -60t-38.5 -71.5 q0 -4 -28 -3t-60.5 14t-59.5 44t-27 86q0 53 34 103.5t95.5 89.5t149.5 63.5t197 24.5q254 0 388 -93.5t134 -269.5q-1 -206 -230 -276q125 -41 190.5 -128t65.5 -210q0 -190 -143 -296t-405 -106q-121 0 -216.5 28t-160 71t-98 96t-33.5 106z" />
<glyph unicode="4" horiz-adv-x="1249" d="M49 453v51q2 41 16.5 74.5t47.5 83.5l405 565q23 35 43.5 56.5t48 33.5t65.5 17t93 5q117 0 167 -43t50 -153v-590h102q70 0 100 -25.5t30 -83.5v-10q0 -59 -30 -84.5t-100 -25.5h-102v-199q0 -139 -127 -139h-29q-59 0 -89.5 36.5t-30.5 102.5v199h-490q-80 0 -125 36.5 t-45 92.5zM315 547h406v573z" />
<glyph unicode="5" horiz-adv-x="1126" d="M43 231q0 35 18.5 63t40 47t42 28.5t22.5 5.5q63 -86 155.5 -132t208.5 -46q129 0 203 58t74 157q0 102 -67.5 157.5t-196.5 55.5q-98 0 -164 -23.5t-111 -58.5q-88 4 -133 44t-45 132v438q0 80 36 124t110 44h643q141 0 141 -119v-10q0 -117 -141 -117h-535v-293 q53 23 113.5 34t128.5 11q111 0 201 -28.5t154.5 -82.5t99 -132t34.5 -176q0 -100 -37 -181t-106.5 -138.5t-169.5 -88.5t-225 -31q-117 0 -209 23.5t-154.5 60.5t-96.5 83t-34 91z" />
<glyph unicode="6" horiz-adv-x="1234" d="M78 596v119q0 147 41 266t118.5 201t188.5 126t248 44q111 0 194.5 -21.5t140 -56.5t86 -82t29.5 -96q0 -43 -22.5 -71t-50 -42t-50 -18t-24.5 -2q-39 59 -105.5 104t-177.5 45q-319 0 -319 -389v-10q59 53 151 92t207 39q100 0 182 -26.5t140.5 -77t90.5 -124t32 -170.5 v-10q0 -102 -39 -187t-107.5 -146.5t-165 -95.5t-213.5 -34q-137 0 -243.5 45t-180 126t-112.5 196t-39 256zM381 520q8 -152 75.5 -235.5t190.5 -83.5q104 0 173 58t69 157v10q0 100 -61.5 153.5t-178.5 53.5q-76 0 -145.5 -32t-122.5 -81z" />
<glyph unicode="7" horiz-adv-x="1114" d="M35 1190v18q0 61 33.5 89t99.5 28h711q63 0 102 -12.5t59.5 -34t27.5 -48t7 -56.5v-19q0 -55 -31.5 -115.5t-60.5 -109.5l-459 -838q-35 -59 -74.5 -82.5t-80.5 -23.5q-37 0 -70 14t-56.5 32.5t-34.5 36t-7 25.5l551 977h-584q-66 0 -99.5 27.5t-33.5 91.5z" />
<glyph unicode="8" horiz-adv-x="1228" d="M61 358q0 117 66 199t199 123q-117 41 -171.5 115.5t-54.5 181.5q0 84 37 153.5t104.5 119.5t163 78t211.5 28q117 0 211.5 -26.5t160 -76t100 -118t34.5 -154.5q0 -104 -54 -180t-167 -117q135 -41 199.5 -124t64.5 -202q0 -86 -39 -156.5t-110.5 -120.5t-174 -78 t-229.5 -28q-262 0 -406.5 101.5t-144.5 281.5zM356 387q0 -86 67.5 -140t190.5 -54q125 0 191.5 52t66.5 142t-68.5 143.5t-189.5 53.5q-123 0 -190.5 -53.5t-67.5 -143.5zM383 952q0 -80 62.5 -130t168.5 -50q109 0 170.5 48t61.5 132q0 82 -60.5 133.5t-171.5 51.5 q-113 0 -172 -50.5t-59 -134.5z" />
<glyph unicode="9" horiz-adv-x="1234" d="M57 870v9q0 102 39 188t107.5 149.5t165 99.5t213.5 36q133 0 238.5 -43t180 -123t114.5 -196t40 -261v-127q0 -311 -155.5 -471t-448.5 -160q-111 0 -195 19.5t-140 52.5t-84 75t-28 87q0 43 15.5 71.5t34 46t36 23.5t19.5 4q53 -61 132 -100t189 -39q170 0 250 91 t80 290v12q-59 -53 -152.5 -92t-205.5 -39q-201 0 -323 103.5t-122 293.5zM346 891q0 -100 61.5 -153.5t178.5 -53.5q78 0 146.5 32t121.5 83q-6 154 -74.5 239.5t-191.5 85.5q-104 0 -173 -64.5t-69 -162.5v-6z" />
<glyph unicode=":" d="M104 121v29q0 135 138 135h34q139 0 140 -135v-29q0 -135 -140 -135h-34q-137 0 -138 135zM104 745v29q0 137 138 137h34q139 0 140 -137v-29q0 -135 -140 -135h-34q-137 0 -138 135z" />
<glyph unicode=";" d="M41 -160l90 326q16 63 42 94t97 31h29q53 0 85 -30t32 -95v-12q0 -37 -15.5 -74t-52.5 -80l-162 -225q-18 -20 -45.5 -24.5t-52.5 4.5t-40 32t-7 53zM104 745v29q0 137 138 137h34q139 0 140 -137v-29q0 -135 -140 -135h-34q-137 0 -138 135z" />
<glyph unicode="&#x3c;" horiz-adv-x="940" d="M78 530q0 59 25.5 92t60.5 52l622 338q4 2 16.5 -8.5t25 -29t22.5 -43t10 -52.5q2 -41 -23.5 -82t-97.5 -76l-372 -189l372 -188q72 -35 97.5 -77t23.5 -81q0 -29 -10 -53t-22.5 -42.5t-23.5 -29t-18 -8.5l-622 334q-35 20 -60.5 53t-25.5 90z" />
<glyph unicode="=" horiz-adv-x="1097" d="M88 268v25q0 45 27.5 77.5t91.5 32.5h686q61 0 90 -32.5t29 -77.5v-25q0 -47 -29 -79.5t-90 -32.5h-686q-63 0 -91 32.5t-28 79.5zM88 764v24q0 45 27.5 78t91.5 33h686q61 0 90 -32.5t29 -78.5v-24q0 -47 -29 -80t-90 -33h-686q-63 0 -91 33t-28 80z" />
<glyph unicode="&#x3e;" horiz-adv-x="937" d="M78 186q0 39 25.5 81t97.5 77l372 188l-372 189q-72 35 -97.5 76t-23.5 82q0 29 10 53t22.5 42.5t23.5 29t18 8.5l622 -338q35 -18 59.5 -51t24.5 -93q0 -57 -24.5 -89.5t-59.5 -53.5l-622 -334q-6 -2 -18.5 8.5t-25 29t-22.5 43t-10 52.5z" />
<glyph unicode="?" horiz-adv-x="1021" d="M47 1022q0 55 29.5 113.5t88 106.5t145.5 79t204 31q217 0 340 -100.5t123 -266.5q0 -84 -27.5 -140.5t-69.5 -95t-92.5 -67.5t-94.5 -59.5t-74.5 -69.5t-34.5 -98q-15 -56 -119 -56q-53 0 -88 25t-33 76q2 86 29.5 141t66.5 92t85 61.5t85 48t64.5 51.5t25.5 71 q0 70 -49 109.5t-141 39.5q-63 0 -111.5 -20.5t-80 -53t-50 -75.5t-24.5 -86q0 -2 -31 -1t-67.5 13t-67.5 43t-31 88zM313 121v29q0 135 136 135h36q139 0 140 -135v-29q0 -135 -140 -135h-36q-135 0 -136 135z" />
<glyph unicode="@" horiz-adv-x="1515" d="M80 662q0 152 50 278.5t141 217.5t218 142.5t279 51.5q160 0 286 -46t212 -127t131 -193t45 -243q0 -197 -86 -300t-250 -103q-86 0 -143.5 35t-79.5 92q-27 -59 -80 -94t-121 -35q-63 0 -113.5 23.5t-85 65.5t-54 98.5t-19.5 121.5q0 141 76.5 226t195.5 85 q59 0 107 -27.5t79 -70.5q14 53 48 72.5t69 19.5q31 0 51.5 -10t20.5 -14v-314q0 -76 25.5 -108.5t80.5 -32.5q66 0 109 65.5t43 200.5q0 104 -35 194.5t-103.5 157t-171 104.5t-237.5 38q-125 0 -228.5 -43t-178 -119t-115.5 -180.5t-41 -228.5q0 -123 42 -227.5 t116.5 -180.5t180 -119t232.5 -43q111 0 200 33t150 82q35 31 68 31q18 0 32.5 -11.5t25 -26t14.5 -27.5t2 -15q-82 -80 -208 -132.5t-284 -52.5q-156 0 -285 50.5t-220 141.5t-141 217t-50 280zM602 647q0 -68 37 -108.5t96 -40.5q53 0 90 32.5t37 87.5v103 q-18 35 -50 56.5t-75 21.5q-61 0 -98 -41t-37 -111z" />
<glyph unicode="A" horiz-adv-x="1343" d="M20 78l453 1169q12 41 52 65.5t145 24.5q102 0 141 -24.5t53 -65.5l463 -1167q1 -2 1 -5q0 -7 -9 -19q-12 -16 -35.5 -32t-54.5 -27t-66 -11q-49 0 -96 30.5t-78 112.5l-80 209h-483l-82 -213q-29 -78 -74 -108.5t-92 -30.5q-31 0 -61.5 10t-52.5 26q-24 14 -36 30 q-9 12 -9 21q0 3 1 5zM483 563h363l-8 21q-7 20 -19 54t-28.5 78t-34.5 89q-39 106 -90 242z" />
<glyph unicode="B" horiz-adv-x="1304" d="M119 168v989q0 80 42 124t115 44h455q225 0 343 -87t118 -253q0 -111 -60.5 -179.5t-177.5 -100.5q147 -35 217 -121t70 -207q0 -193 -127 -285t-407 -92h-431q-74 0 -115.5 44t-41.5 124zM416 225h270q135 0 190.5 42t55.5 139q0 88 -57.5 128.5t-186.5 40.5h-272v-350z M416 768h254q104 0 157.5 45t53.5 125q0 82 -50.5 122t-160.5 40h-254v-332z" />
<glyph unicode="C" horiz-adv-x="1339" d="M76 662q0 152 50 278.5t140 217.5t216 142.5t278 51.5q131 0 227 -32t158.5 -78t93.5 -97t31 -92q0 -49 -26.5 -81t-58.5 -49.5t-59.5 -22.5t-29.5 -1q-49 86 -136.5 133t-189.5 47q-82 0 -152.5 -29.5t-122 -85t-80 -132t-28.5 -168.5t28.5 -169t81 -132.5t123 -86 t154.5 -30.5q117 0 204 53t126 147q2 4 29.5 -1t61.5 -22t61.5 -49t27.5 -81q0 -43 -31.5 -98.5t-96 -104.5t-164 -83t-236.5 -34q-150 0 -276 50.5t-215 141.5t-139 218t-50 279z" />
<glyph unicode="D" horiz-adv-x="1398" d="M119 166v991q0 80 45 124t115 44h333q168 0 300 -45t224.5 -130t141.5 -207t49 -275q0 -154 -50 -278t-143.5 -211t-227.5 -133t-302 -46h-317q-72 0 -120 48t-48 118zM418 258h184q199 0 311.5 106.5t112.5 301.5q0 193 -111.5 297t-308.5 104h-188v-809z" />
<glyph unicode="E" horiz-adv-x="1228" d="M119 166v991q0 80 42 124t115 44h740q72 0 105.5 -34t33.5 -93v-10q0 -127 -139 -127h-594v-262h434q74 0 106.5 -31t32.5 -86v-8q0 -123 -139 -123h-434v-289h604q139 0 139 -119v-12q0 -131 -139 -131h-750q-74 0 -115.5 43t-41.5 123z" />
<glyph unicode="F" horiz-adv-x="1138" d="M119 160v997q0 80 42 124t115 44h685q139 0 139 -121v-12q0 -125 -139 -125h-545v-330h393q139 0 139 -116v-7q0 -122 -137 -122h-2h-383v-361q0 -139 -133 -139h-47q-61 0 -94 44t-33 124z" />
<glyph unicode="G" horiz-adv-x="1472" d="M76 662q0 152 51 278.5t143 217.5t221.5 142.5t284.5 51.5q123 0 218.5 -26t161 -67.5t99 -93t33.5 -102.5q0 -45 -23.5 -73.5t-51 -46t-52 -23t-28.5 -0.5q-57 86 -149.5 130t-192.5 44q-88 0 -163 -32t-129.5 -90.5t-85 -140t-30.5 -180.5q0 -98 27.5 -179t78 -139.5 t123 -91t160.5 -32.5q141 0 232.5 69.5t105.5 184.5v33h-236q-74 0 -109.5 23.5t-35.5 84.5v12q0 66 36 87.5t109 21.5h375q72 0 99 -36q26 -34 26 -98v-9v-562q0 -6 -29.5 -17t-70.5 -11q-27 0 -53.5 7t-48 26.5t-37 52.5t-19.5 84q-59 -86 -162.5 -135.5t-248.5 -49.5 q-143 0 -260 51.5t-199 142.5t-126 216t-44 275z" />
<glyph unicode="H" horiz-adv-x="1417" d="M119 129v1067q0 137 127 137h45q131 0 131 -137v-403h573v403q0 137 127 137h43q133 0 133 -137v-1067q0 -137 -133 -137h-43q-127 0 -127 137v408h-573v-408q0 -137 -131 -137h-45q-127 0 -127 137z" />
<glyph unicode="I" horiz-adv-x="573" d="M135 129v1067q0 137 129 137h41q133 0 133 -137v-1067q0 -137 -133 -137h-41q-129 0 -129 137z" />
<glyph unicode="J" horiz-adv-x="1017" d="M39 209q0 43 17.5 73.5t39 50t39 28t19.5 4.5q41 -61 101 -98.5t138 -37.5q111 0 159 58.5t48 199.5v709q0 137 127 137h43q131 0 131 -137v-713q0 -262 -117.5 -386t-353.5 -124q-184 0 -287.5 69t-103.5 167z" />
<glyph unicode="K" horiz-adv-x="1257" d="M119 129v1067q0 137 127 137h43q133 0 133 -137v-473l434 512q43 57 84 77.5t82 20.5q43 0 75.5 -16.5t54.5 -38t32 -40.5t6 -26l-449 -536l465 -565q1 -2 1 -4q0 -7 -8 -21q-11 -20 -34.5 -40.5t-58.5 -37t-78 -16.5q-45 0 -86 20.5t-80 73.5l-440 528v-485 q0 -137 -133 -137h-43q-127 0 -127 137z" />
<glyph unicode="L" horiz-adv-x="1103" d="M119 166v1030q0 137 127 137h43q133 0 133 -137v-930h496q139 0 139 -127v-8q0 -131 -139 -131h-642q-74 0 -115.5 43t-41.5 123z" />
<glyph unicode="M" horiz-adv-x="1554" d="M119 129v1053q0 74 39 112.5t110 38.5h84q70 0 100.5 -23.5t57.5 -82.5l268 -629l271 629q29 61 59.5 83.5t93.5 22.5h80q74 0 114 -39t40 -112v-1053q0 -68 -27 -102.5t-92 -34.5h-47q-119 0 -119 137v789l-221 -537q-8 -18 -16.5 -35.5t-24 -31t-42 -20.5t-71.5 -7 t-71.5 7t-41 19.5t-22.5 29.5t-16 38l-222 526v-778q0 -68 -26.5 -102.5t-91.5 -34.5h-47q-63 0 -91 34.5t-28 102.5z" />
<glyph unicode="N" horiz-adv-x="1417" d="M119 129v1055q0 72 34.5 110.5t96.5 38.5h37q59 0 89 -20.5t64 -65.5l574 -788v737q0 137 129 137h28q127 0 127 -137v-1055q0 -74 -34.5 -111.5t-94.5 -37.5h-24q-59 0 -86 16.5t-60 57.5l-596 819v-756q0 -137 -131 -137h-28q-125 0 -125 137z" />
<glyph unicode="O" horiz-adv-x="1509" d="M72 662q0 152 51 278.5t142 217.5t216 142.5t275 51.5q152 0 276.5 -51.5t214.5 -142.5t140.5 -217t50.5 -277q0 -152 -50.5 -279t-141.5 -218t-215.5 -142.5t-276.5 -51.5q-150 0 -276 50.5t-216 141.5t-140 218t-50 279zM373 664q0 -94 27.5 -172t78.5 -133.5t121 -86 t156 -30.5t155.5 29.5t120.5 85t79 133t28 172.5q0 94 -29 171.5t-79 134t-120.5 87t-156.5 30.5t-156 -29.5t-120 -85t-77.5 -133t-27.5 -173.5z" />
<glyph unicode="P" horiz-adv-x="1206" d="M119 129v1028q0 80 42 124t115 44h345q266 0 406 -113.5t140 -334.5q0 -223 -137 -335t-407 -112h-201v-301q0 -66 -33 -101.5t-98 -35.5h-45q-59 0 -93 34.5t-34 102.5zM418 657h198q127 0 191.5 56.5t64.5 160.5t-64.5 160t-191.5 56h-198v-433z" />
<glyph unicode="Q" horiz-adv-x="1509" d="M72 662q0 152 51 278.5t142 217.5t217 142.5t276 51.5q152 0 276.5 -50.5t213.5 -141.5t139.5 -218t50.5 -278q0 -117 -35 -222.5t-100 -191.5l159 -170q1 -1 1 -3q0 -6 -8 -19q-11 -17 -32.5 -35.5t-54.5 -34t-74 -15.5t-87 21.5t-95 79.5q-78 -47 -168 -74t-188 -27 q-150 0 -276 50.5t-217 141.5t-141 218t-50 279zM373 662q0 -92 28.5 -170t79.5 -134.5t122 -87t155 -30.5q94 0 174 34l-131 136q-37 41 -45 96q-1 9 -1 18q0 43 33 72l13 12q31 25 65 25q13 0 27 -3q49 -14 90 -57q33 -35 59 -63q25 -25 42 -44l18 -20q45 96 45 216 q0 92 -27.5 169.5t-79 135t-123 89t-157.5 31.5q-88 0 -159 -31.5t-122 -88t-78.5 -135t-27.5 -170.5z" />
<glyph unicode="R" horiz-adv-x="1261" d="M119 158v999q0 80 42 124t115 44h392q260 0 391 -104.5t131 -309.5q0 -160 -87 -261t-257 -130l344 -418q1 -2 1 -5q0 -7 -5 -19q-8 -18 -29.5 -36.5t-56.5 -34t-84 -15.5q-66 0 -109 28.5t-90 94.5l-282 356h-115v-342q0 -66 -33 -101.5t-98 -35.5h-43q-61 0 -94 43 t-33 123zM416 692h231q123 0 181.5 53.5t58.5 145.5q0 199 -246 199h-225v-398z" />
<glyph unicode="S" horiz-adv-x="1165" d="M53 240q0 31 16.5 59.5t37 50t39 33.5t22.5 8q59 -72 165.5 -127t229.5 -55q119 0 180.5 42t61.5 120q0 45 -23.5 72.5t-62.5 45t-91.5 29.5t-111.5 25q-80 18 -156.5 44.5t-138 72t-98.5 114t-37 168.5q0 92 36 168t103.5 129t162.5 83t214 30q121 0 210 -21.5 t148.5 -56.5t89 -78t29.5 -86q0 -35 -18.5 -64.5t-40 -51t-40.5 -33t-22 -9.5q-59 70 -152 117t-200 47q-111 0 -170 -43t-59 -115q0 -43 21.5 -68.5t58.5 -42t89 -26.5t113 -24q90 -20 171 -50t142.5 -78t98.5 -115t37 -161q0 -199 -139.5 -309.5t-403.5 -110.5 q-131 0 -228 25t-159.5 63.5t-93.5 86t-31 92.5z" />
<glyph unicode="T" horiz-adv-x="1239" d="M31 1192v8q0 125 139 125h899q139 0 139 -125v-8q0 -131 -139 -131h-297v-932q0 -137 -133 -137h-43q-125 0 -125 137v932h-301q-139 0 -139 131z" />
<glyph unicode="U" horiz-adv-x="1357" d="M109 557v639q0 70 34.5 103.5t96.5 33.5h39q131 0 131 -137v-635q0 -321 268 -321h2q268 0 268 321v635q0 137 131 137h41q129 0 129 -137v-635q0 -289 -144 -436.5t-427 -147.5t-426 145.5t-143 434.5z" />
<glyph unicode="V" horiz-adv-x="1320" d="M23 1233q-1 2 -1 5q0 10 11 22q14 16 40.5 32.5t61.5 28.5t72 12q57 0 102 -35.5t66 -103.5l293 -856l288 856q23 76 69 107.5t95 31.5q37 0 71 -12t58.5 -28.5t37.5 -32.5q10 -13 10 -22q0 -3 -1 -5l-454 -1131q-27 -59 -67 -86.5t-113 -27.5q-72 0 -111 25.5t-66 88.5z " />
<glyph unicode="W" horiz-adv-x="1947" d="M82 1237q-2 6 9 21.5t35 32t58.5 28.5t81.5 12q51 0 100.5 -33.5t67.5 -132.5l168 -792l201 692q31 121 180 121q141 0 174 -121l199 -688l170 792q16 90 62 127t102 37q45 0 78.5 -13t55 -29.5t33 -32t9.5 -21.5l-305 -1133q-16 -66 -61.5 -91t-125.5 -25 q-78 0 -122 25.5t-64 90.5l-209 717l-217 -717q-16 -66 -61 -91t-123 -25q-80 0 -124 24.5t-61 91.5z" />
<glyph unicode="X" horiz-adv-x="1302" d="M39 102l407 562l-399 550q-4 8 9.5 28t40 40.5t63.5 35.5t78 15q47 0 88 -24.5t73 -81.5l256 -393l265 395q33 55 74.5 80.5t82.5 25.5q39 0 74 -15t61 -34q24 -20 38 -40q10 -15 11 -23q0 -2 -1 -4l-406 -557l406 -556q1 -2 1 -4q-1 -8 -11 -22q-14 -18 -40 -39t-62 -36 t-77 -15q-43 0 -87 23.5t-77 80.5l-262 400l-266 -402q-35 -59 -77 -82.5t-83 -23.5q-39 0 -73.5 15t-59.5 35q-25 22 -38 40q-10 14 -10 22q0 2 1 4z" />
<glyph unicode="Y" horiz-adv-x="1234" d="M4 1217q-1 2 -1 5q0 7 6 20q9 20 31.5 39t61.5 35.5t95 16.5q41 0 77.5 -25.5t65.5 -78.5l278 -455l283 453q35 59 72 82.5t74 23.5q51 0 86.5 -16.5t59.5 -36.5t33 -38q6 -13 6 -20q0 -3 -1 -5l-461 -685v-403q0 -137 -133 -137h-41q-129 0 -129 137v403z" />
<glyph unicode="Z" horiz-adv-x="1257" d="M82 127v20q0 66 23.5 105t74.5 98l606 721h-561q-66 0 -99.5 27.5t-33.5 91.5v14q0 121 133 121h774q92 0 131 -39t39 -88v-18q0 -66 -26.5 -108t-69.5 -91l-616 -727h600q66 0 100.5 -27.5t34.5 -91.5v-14q0 -121 -135 -121h-805q-92 0 -131 39t-39 88z" />
<glyph unicode="[" horiz-adv-x="763" d="M121 -240v1411q0 80 42 124t116 44h311q74 0 106.5 -25.5t32.5 -84.5v-12q0 -61 -32.5 -88t-106.5 -27h-201v-1274h205q74 0 106.5 -24.5t32.5 -84.5v-12q0 -59 -32.5 -86t-106.5 -27h-315q-74 0 -116 43.5t-42 122.5z" />
<glyph unicode="\" horiz-adv-x="735" d="M20 1231q0 37 14.5 59.5t37 34.5t48 16.5t48.5 4.5q25 0 43 -3.5t18 -7.5l494 -1562q16 -55 16 -86q0 -37 -14 -59.5t-36.5 -35t-48 -16.5t-48.5 -4q-25 0 -43.5 3t-18.5 7l-493 1563q-16 59 -17 86z" />
<glyph unicode="]" horiz-adv-x="763" d="M31 -281q0 59 32.5 84t106.5 25h205v1274h-201q-74 0 -106.5 26.5t-32.5 88.5v12q0 59 32.5 84.5t106.5 25.5h311q74 0 116 -44t42 -124v-1411q0 -80 -42 -123t-116 -43h-315q-74 0 -106.5 27t-32.5 86v12z" />
<glyph unicode="^" horiz-adv-x="1024" d="M201 993q0 47 37.5 98.5t88 96.5t102.5 76.5t83 40.5q31 -8 82 -40t102.5 -77t88 -96.5t36.5 -98.5q0 -41 -25.5 -65.5t-66.5 -24.5q-100 0 -217 207q-121 -207 -217 -207q-41 0 -67.5 24.5t-26.5 65.5z" />
<glyph unicode="_" horiz-adv-x="1015" d="M23 -104q0 47 28.5 75.5t87.5 28.5h735q59 0 89 -28.5t30 -75.5v-13q0 -47 -29.5 -75.5t-89.5 -28.5h-735q-59 0 -87.5 28.5t-28.5 75.5v13z" />
<glyph unicode="`" horiz-adv-x="1024" d="M201 1372q0 47 37.5 80t93.5 33q49 0 102 -35q51 -31 96 -79t78 -94t50.5 -83t11.5 -47q-6 -8 -42 -12.5t-88.5 2t-116 25t-122.5 55.5q-47 29 -73.5 70.5t-26.5 84.5z" />
<glyph unicode="a" horiz-adv-x="1118" d="M57 266q0 174 157 255t486 85h33q0 199 -205 199q-104 0 -161.5 -47t-85.5 -107q0 -2 -29 -1t-64.5 11.5t-64.5 37t-29 75.5q0 47 28 91t84 79t141 56.5t200 21.5q238 0 354.5 -104.5t116.5 -307.5v-592q0 -10 -34 -21t-75 -11q-68 0 -112.5 37.5t-57.5 121.5 q-53 -78 -143 -123t-203 -45q-158 0 -247 80t-89 209zM334 287q0 -55 41.5 -88t113.5 -33q109 0 176.5 63.5t67.5 161.5v58l-53 -3q-172 -4 -259 -40.5t-87 -118.5z" />
<glyph unicode="b" horiz-adv-x="1239" d="M109 129v1262q0 8 32.5 20t75.5 12q33 0 64.5 -10t57.5 -35.5t42 -70.5t16 -115v-334q53 76 135 120t189 44q102 0 187 -37t146.5 -104.5t95.5 -163.5t34 -217q0 -117 -34 -214.5t-95.5 -166t-147.5 -107.5t-190 -39q-115 0 -197 50t-123 122v-16q0 -78 -35.5 -107.5 t-91.5 -29.5h-30q-59 0 -95 28.5t-36 108.5zM397 442q0 -53 19.5 -97t53.5 -75.5t80 -49t97 -17.5q117 0 187.5 81t70.5 212q0 133 -70.5 214t-185.5 81q-92 0 -155.5 -44t-96.5 -120v-185z" />
<glyph unicode="c" horiz-adv-x="1052" d="M55 498q0 115 39 211t109.5 164.5t167 107.5t211.5 39t195.5 -28.5t132 -70.5t75 -89.5t23.5 -81.5q0 -43 -25 -70t-53.5 -41t-54 -17.5t-27.5 1.5q-29 72 -88.5 118.5t-165.5 46.5q-59 0 -109.5 -21.5t-86.5 -60t-56 -92t-20 -116.5t20 -117.5t56 -93.5t86.5 -60.5 t109.5 -21.5q104 0 164.5 47t89.5 119q2 4 26.5 2t54 -16.5t54.5 -41t25 -73.5q0 -35 -25 -81t-77 -88t-131.5 -71t-192.5 -29q-117 0 -213.5 39t-166 108.5t-108.5 166t-39 211.5z" />
<glyph unicode="d" horiz-adv-x="1239" d="M55 498q0 119 34 216t95.5 165.5t147.5 105.5t190 37q111 0 194 -43t126 -109v521q0 8 32.5 20t75.5 12q33 0 65 -10t57.5 -35.5t41.5 -70.5t16 -115v-1063q0 -78 -35.5 -107.5t-90.5 -29.5h-31q-59 0 -95 28.5t-36 108.5v33q-47 -86 -130 -137.5t-194 -51.5 q-100 0 -185 38t-146.5 106.5t-96.5 166t-35 214.5zM334 496q0 -129 71.5 -211t184.5 -82q51 0 97 17.5t80 48t54.5 74.5t20.5 97v191q-31 74 -93.5 117t-154.5 43q-119 0 -189.5 -80t-70.5 -215z" />
<glyph unicode="e" horiz-adv-x="1126" d="M55 492q0 115 39 212t108.5 167.5t166 110.5t209.5 40q111 0 201.5 -37t157.5 -103.5t102.5 -157.5t35.5 -202v-20q-2 -39 -15 -59.5t-54 -20.5h-689q16 -113 94 -175.5t195 -62.5q115 0 181.5 44t101.5 104q0 2 22.5 -2t48 -18.5t47 -41t21.5 -69.5q0 -39 -28.5 -80 t-83 -74t-135.5 -53.5t-185 -20.5q-123 0 -222.5 37t-170 104.5t-109.5 163t-39 214.5zM317 590h490q-4 104 -66.5 167.5t-167.5 63.5q-102 0 -171.5 -64.5t-84.5 -166.5z" />
<glyph unicode="f" horiz-adv-x="780" d="M12 881v16q0 102 121 102h82v54q0 104 24.5 177t69.5 119t109.5 66.5t142.5 20.5q133 0 193.5 -48.5t60.5 -109.5q0 -27 -9 -49.5t-20.5 -37.5t-20.5 -23.5t-11 -6.5q-23 20 -59 36.5t-79 16.5q-63 0 -92.5 -37.5t-29.5 -123.5v-54h129q121 0 120 -106v-19 q0 -100 -120 -100h-119v-645q0 -80 -35 -108.5t-94 -28.5h-31q-55 0 -92 29.5t-37 107.5v645h-82q-121 0 -121 107z" />
<glyph unicode="g" horiz-adv-x="1048" d="M-10 -154q0 104 88 172t225 86q-37 35 -37 93q0 35 19.5 65.5t48.5 50.5q-129 37 -202 124t-73 206q0 80 34 149.5t94.5 120t144.5 79t182 28.5q119 0 217 -43l43 82q29 53 62.5 76.5t81.5 23.5q39 0 66.5 -18.5t45 -41t24.5 -41.5q5 -16 5 -20q0 -2 -86 -84 q-35 -35 -61 -60l-27 -24q43 -45 66.5 -101t23.5 -122q0 -80 -32 -145.5t-92 -113.5t-144 -73.5t-189 -25.5h-14q-4 -12 -4 -21q0 -41 68.5 -56t189.5 -46q53 -14 104 -37t92 -56.5t67 -79.5t26 -110q0 -145 -141.5 -230t-399.5 -85q-268 0 -392 67.5t-124 210.5zM264 -137 q0 -53 61.5 -83t186.5 -30t191.5 32t66.5 91q0 31 -21.5 50.5t-57.5 32.5t-82 23.5t-95 20.5q-109 -8 -179.5 -43t-70.5 -94zM326 647q0 -86 53 -137t137 -51q86 0 138.5 51t52.5 137q0 84 -53.5 135.5t-139.5 51.5q-84 0 -136 -50.5t-52 -136.5z" />
<glyph unicode="h" horiz-adv-x="1189" d="M109 129v1262q0 8 32.5 20t75.5 12q33 0 64.5 -10t57.5 -35.5t42 -70.5t16 -115v-350q47 78 126 129t196 51q98 0 168.5 -33t116 -90t67 -134t21.5 -165v-471q0 -78 -36 -107.5t-91 -29.5h-31q-59 0 -95 28.5t-36 108.5v430q0 104 -49 162.5t-136 58.5 q-102 0 -161.5 -62.5t-59.5 -170.5v-418q0 -78 -35.5 -107.5t-91.5 -29.5h-30q-59 0 -95 28.5t-36 108.5z" />
<glyph unicode="i" d="M100 1313q0 68 43 106.5t119 38.5t118 -38t42 -107q0 -70 -42 -109t-118 -39t-119 39t-43 109zM117 129v741q0 78 36.5 109t92.5 31h30q59 0 94.5 -30t35.5 -110v-741q0 -78 -36 -107.5t-91 -29.5h-31q-57 0 -94 28.5t-37 108.5z" />
<glyph unicode="j" d="M-164 -248q0 27 8.5 49.5t19.5 38t20.5 24.5t11.5 7q20 -23 49.5 -37t66.5 -14q104 0 105 127v923q0 78 36.5 109t92.5 31h30q59 0 94.5 -30t35.5 -110v-938q0 -166 -85 -254t-245 -88q-115 0 -177.5 43t-62.5 119zM100 1313q0 68 43 106.5t119 38.5t118 -38t42 -107 q0 -70 -42 -109t-118 -39t-119 39t-43 109z" />
<glyph unicode="k" horiz-adv-x="1052" d="M109 129v1262q0 8 32.5 20t75.5 12q33 0 64.5 -10t57.5 -35.5t42 -70.5t16 -115v-627l281 355q35 51 78 71.5t80 20.5q35 0 64.5 -13.5t51 -31t32.5 -32.5t7 -22l-313 -391l354 -436q1 -2 1 -4q0 -6 -9 -18q-12 -16 -33.5 -33t-51.5 -30t-65 -13q-41 0 -82.5 19.5 t-80.5 72.5l-314 381v-332q0 -78 -35.5 -107.5t-91.5 -29.5h-30q-59 0 -95 28.5t-36 108.5z" />
<glyph unicode="l" d="M117 129v1262q0 8 32.5 20t75.5 12q33 0 65 -10t57.5 -35.5t42 -70.5t16.5 -115v-1063q0 -78 -36 -107.5t-91 -29.5h-31q-57 0 -94 28.5t-37 108.5z" />
<glyph unicode="m" horiz-adv-x="1816" d="M109 129v848q0 6 32.5 19.5t75.5 13.5q55 0 107.5 -32t66.5 -128q51 76 126 124t183 48q125 0 205 -54.5t115 -150.5q51 86 132 145.5t206 59.5q96 0 163.5 -28.5t111.5 -81t64.5 -126t20.5 -161.5v-496q0 -78 -35.5 -107.5t-93.5 -29.5h-28q-59 0 -95 28.5t-36 108.5 v449q0 202 -173 202h-2q-63 0 -115.5 -34.5t-82.5 -88.5v-528q0 -78 -36 -107.5t-91 -29.5h-31q-57 0 -94 28.5t-37 108.5v442q0 209 -172 209q-63 0 -115.5 -34.5t-83.5 -88.5v-528q0 -78 -35.5 -107.5t-91.5 -29.5h-30q-59 0 -95 28.5t-36 108.5z" />
<glyph unicode="n" horiz-adv-x="1189" d="M109 129v848q0 6 32.5 19.5t75.5 13.5q55 0 108.5 -34t67.5 -130q53 78 131 127t195 49q98 0 168.5 -33t116 -88t67 -131t21.5 -162v-479q0 -78 -36 -107.5t-91 -29.5h-31q-59 0 -95 28.5t-36 108.5v436q0 100 -48 157.5t-137 57.5q-78 0 -134 -35.5t-87 -95.5v-520 q0 -78 -35.5 -107.5t-91.5 -29.5h-30q-59 0 -95 28.5t-36 108.5z" />
<glyph unicode="o" horiz-adv-x="1179" d="M55 498q0 117 39 213t109.5 164.5t170 107.5t218.5 39t216 -39t166.5 -107.5t108.5 -166t39 -213.5q0 -117 -39 -213.5t-108.5 -165t-167.5 -106.5t-219 -38q-119 0 -217.5 38t-168 106.5t-108.5 166t-39 214.5zM309 498q0 -63 21.5 -118.5t58.5 -94.5t88.5 -61.5 t112.5 -22.5q59 0 110.5 22.5t88 61.5t58 93t21.5 118q0 66 -20.5 121t-57 95t-88 62.5t-112.5 22.5t-112.5 -22.5t-88.5 -62.5t-58.5 -94.5t-21.5 -119.5z" />
<glyph unicode="p" horiz-adv-x="1239" d="M109 -260v1237q0 6 32.5 19.5t75.5 13.5q29 0 57.5 -7.5t53 -28t42 -53t23.5 -85.5q49 86 131 136t197 50q102 0 187 -37t146.5 -104.5t95.5 -163.5t34 -217q0 -117 -34 -214.5t-95.5 -166t-147.5 -107.5t-190 -39q-115 0 -197 53.5t-123 129.5v-416q0 -78 -35.5 -108.5 t-91.5 -30.5h-30q-59 0 -95 29.5t-36 109.5zM397 442q0 -53 19.5 -97t53.5 -75.5t80 -49t97 -17.5q117 0 187.5 81t70.5 212q0 133 -70.5 214t-185.5 81q-92 0 -155.5 -44.5t-96.5 -117.5v-187z" />
<glyph unicode="q" horiz-adv-x="1239" d="M55 498q0 119 34 216t95.5 165.5t147.5 105.5t190 37q115 0 200 -47t126 -117q18 90 69.5 121t104.5 31q43 0 75.5 -13.5t32.5 -19.5v-1237q0 -80 -35.5 -109.5t-95.5 -29.5h-30q-55 0 -91 30.5t-36 108.5v422q-47 -86 -130 -137.5t-194 -51.5q-100 0 -185 38 t-146.5 106.5t-96.5 166t-35 214.5zM334 496q0 -129 71.5 -211t184.5 -82q51 0 97 17.5t80 49t54.5 75.5t20.5 97v187q-31 74 -93.5 118t-154.5 44q-119 0 -189.5 -80t-70.5 -215z" />
<glyph unicode="r" horiz-adv-x="849" d="M109 129v848q0 6 32.5 19.5t75.5 13.5q29 0 57.5 -7.5t52 -27t42 -52t24.5 -83.5q31 86 91.5 134t152.5 48q88 0 137 -45t49 -123q0 -43 -13 -72.5t-30.5 -48t-32 -26t-16.5 -5.5q-23 23 -56.5 36.5t-74.5 13.5q-106 0 -154.5 -86t-48.5 -238v-299q0 -78 -35.5 -107.5 t-91.5 -29.5h-30q-59 0 -95 28.5t-36 108.5z" />
<glyph unicode="s" horiz-adv-x="974" d="M41 195q0 29 13.5 51t28.5 37.5t29.5 23.5t16.5 6q53 -55 136 -94t194 -39q86 0 131 24.5t45 71.5q0 57 -56.5 76t-158.5 41q-51 12 -112.5 28.5t-115 49.5t-89 86t-35.5 139q0 74 29.5 133.5t84 101.5t132 65.5t171.5 23.5q205 0 304.5 -63.5t99.5 -149.5 q0 -29 -13.5 -52.5t-31 -40t-31.5 -24.5t-16 -6q-51 59 -128 96t-165 37q-82 0 -126 -25.5t-44 -72.5q0 -53 55 -71.5t158 -41.5q53 -12 117.5 -28.5t120 -50t93 -87t37.5 -139.5q0 -152 -116.5 -238t-323.5 -86q-219 0 -326.5 66t-107.5 152z" />
<glyph unicode="t" horiz-adv-x="823" d="M29 874v19q0 106 121 106h49v127q0 72 34.5 106t96.5 34h24q59 0 94 -30t35 -110v-127h174q61 0 89 -25.5t28 -76.5v-16q0 -106 -121 -107h-176v-426q0 -74 25.5 -110.5t85.5 -36.5q45 0 75.5 19.5t53.5 47.5q2 2 13 -4t23.5 -20.5t22.5 -36t10 -51.5q0 -76 -70.5 -129.5 t-193.5 -53.5q-166 0 -244.5 86t-78.5 256v459h-49q-121 0 -121 100z" />
<glyph unicode="u" horiz-adv-x="1189" d="M100 387v483q0 78 36 109t91 31h31q57 0 94 -30t37 -110v-440q0 -100 48 -157.5t141 -57.5q72 0 128 36t87 95v524q0 78 35.5 109t93.5 31h28q59 0 95 -30t36 -110v-845q0 -8 -31.5 -20.5t-76.5 -12.5q-27 0 -54.5 7t-51 24.5t-41 48.5t-25.5 78q-53 -78 -133 -127.5 t-197 -49.5q-98 0 -169 32t-115 88.5t-65.5 132t-21.5 161.5z" />
<glyph unicode="v" horiz-adv-x="1087" d="M23 926q-2 6 10 20.5t33.5 27.5t50 24.5t61.5 11.5q53 0 94 -30t70 -116l203 -600l209 600q29 86 69.5 116t87.5 30q33 0 63 -11.5t51.5 -24.5t32.5 -27.5t9 -20.5l-358 -863q-18 -45 -65.5 -60t-96.5 -15q-53 0 -98.5 14t-63.5 59z" />
<glyph unicode="w" horiz-adv-x="1546" d="M31 926q-2 6 14 20.5t42 28.5t57.5 24.5t62.5 10.5q41 0 83 -26t54 -99l125 -596l160 518q27 94 155 94q127 0 152 -94l151 -508l123 586q12 72 52.5 98.5t80.5 26.5q31 0 63 -11.5t56 -24.5q26 -14 40 -28q12 -12 12 -18q0 -1 -1 -2l-253 -854q-14 -51 -57.5 -67.5 t-96.5 -16.5q-78 0 -113 18.5t-55 77.5l-162 506l-166 -506q-16 -59 -53 -77.5t-111 -18.5q-53 0 -96 16t-59 68z" />
<glyph unicode="x" horiz-adv-x="1062" d="M39 84l305 416l-303 415q-2 6 9 21.5t32.5 32t52.5 30t66 13.5q51 0 92 -24.5t69 -80.5l170 -266l170 266q31 57 73 81t83 24q37 0 70 -13.5t55.5 -30t33.5 -31.5q8 -11 8 -18q0 -2 -1 -4l-305 -417l301 -414q4 -6 -7.5 -21.5t-34 -32t-54 -29.5t-70.5 -13 q-100 0 -156 104l-170 266l-168 -266q-57 -104 -159 -104q-37 0 -68 13t-53 31q-23 16 -34 32q-8 11 -8 17q0 2 1 3z" />
<glyph unicode="y" horiz-adv-x="1087" d="M23 926q-2 6 10 20.5t33.5 27.5t51 24.5t62.5 11.5q51 0 92 -29t70 -115l217 -571l193 569q27 86 69.5 116t89.5 30q31 0 59.5 -10.5t51 -24.5t35 -26.5t10.5 -18.5l-455 -1182q-33 -82 -74.5 -111.5t-88.5 -29.5q-31 0 -61 10t-51.5 24.5t-32.5 27t-9 18.5l166 376 q-35 4 -57.5 18.5t-36.5 45.5z" />
<glyph unicode="z" horiz-adv-x="1011" d="M61 102v17q0 49 14.5 73.5t49.5 63.5l446 520h-387q-117 0 -116 105v14q0 104 116 104h643q59 0 85 -30.5t26 -69.5v-14q0 -47 -14.5 -72t-49.5 -61l-458 -529h424q117 0 116 -104v-13q0 -106 -116 -106h-670q-59 0 -84 31.5t-25 70.5z" />
<glyph unicode="{" horiz-adv-x="946" d="M43 467q0 43 7 73.5t25.5 53t47.5 42t72 42.5l88 47q14 166 62 283.5t116.5 191.5t149.5 108.5t159 34.5q66 0 107 -33.5t41 -92.5q0 -41 -20.5 -67t-29.5 -28q-88 -12 -147 -49t-96 -101.5t-55.5 -156.5t-22.5 -213l-244 -135l242 -135q6 -121 23.5 -213t55.5 -156.5 t97 -101.5t147 -49q6 0 28 -27t22 -68q0 -59 -42.5 -92t-105.5 -33q-78 0 -159 35t-149.5 109t-117.5 191.5t-63 283.5l-86 45q-45 25 -75 44t-47.5 42t-23.5 52.5t-6 72.5z" />
<glyph unicode="|" horiz-adv-x="555" d="M133 -266v1470q0 78 37 108.5t92 30.5h31q59 0 94 -29.5t35 -109.5v-1470q0 -78 -36 -109t-91 -31h-31q-57 0 -94 29t-37 111z" />
<glyph unicode="}" horiz-adv-x="946" d="M29 -283q0 41 21.5 68t27.5 27q88 12 147.5 49t96 101.5t55 156.5t22.5 213l242 135l-242 135q-4 121 -22.5 213t-55 156.5t-97 101.5t-148.5 49q-6 2 -26.5 28t-20.5 67q0 59 41 92.5t104 33.5q78 0 159 -34.5t149.5 -108.5t117.5 -191.5t64 -283.5l86 -47 q43 -23 71.5 -42.5t47 -42t26.5 -53t8 -73.5t-7 -72.5t-23.5 -52.5t-46 -42t-76.5 -44l-86 -45q-14 -166 -62.5 -283.5t-117 -191.5t-149.5 -109t-159 -35q-66 0 -106.5 33t-40.5 92z" />
<glyph unicode="~" horiz-adv-x="1021" d="M170 426q0 92 54.5 151.5t127.5 59.5q66 0 139.5 -36t147.5 -105q16 53 46 93t71 40q45 0 70.5 -29t25.5 -70q0 -92 -54.5 -150t-127.5 -58q-66 0 -139.5 34.5t-147.5 104.5q-16 -53 -46 -93t-71 -40q-43 0 -69.5 28.5t-26.5 69.5z" />
<glyph unicode="&#xa1;" horiz-adv-x="567" d="M113 164l82 657q10 47 26.5 70.5t48.5 23.5h29q31 0 46 -23.5t26 -70.5l82 -657q18 -86 -23 -133t-119 -47h-51q-82 0 -124 47t-23 133zM127 1178v28q0 135 139 135h37q135 0 135 -135v-28q0 -137 -135 -138h-37q-139 0 -139 138z" />
<glyph unicode="&#xa2;" horiz-adv-x="1083" d="M53 578q0 102 30 189t85 154.5t132 113.5t171 65v119q0 72 27.5 105.5t89.5 33.5h10q63 0 90 -34t27 -105v-111q164 -20 244.5 -92t80.5 -150q0 -41 -22.5 -68.5t-51 -43t-52 -20.5t-27.5 -1q-45 78 -106.5 115t-166.5 37q-127 0 -205.5 -82t-78.5 -223q0 -143 83 -225.5 t216 -82.5q98 0 161.5 40t104.5 122q4 4 28.5 0t52.5 -18.5t51.5 -41t23.5 -67.5q0 -43 -21.5 -84t-63.5 -76.5t-103.5 -61.5t-143.5 -36v-117q0 -139 -119 -139h-8q-66 0 -92.5 33t-26.5 106v123q-195 37 -307.5 172t-112.5 351z" />
<glyph unicode="&#xa3;" horiz-adv-x="1226" d="M33 113v14q0 109 131 109h49l51 274h-84q-47 0 -74.5 25.5t-27.5 68.5v25q0 45 27.5 70.5t74.5 25.5h123l41 223q35 199 148.5 301.5t300.5 102.5q92 0 163.5 -22.5t119.5 -60.5t74 -87t26 -105q0 -57 -26 -86.5t-57.5 -42t-58 -13.5t-26.5 1q-16 86 -64.5 134t-140.5 48 t-138.5 -48t-66.5 -157l-35 -188h271q47 0 74.5 -25.5t27.5 -70.5v-25q0 -45 -27.5 -69.5t-74.5 -24.5h-310l-49 -274h557q70 0 100.5 -26t30.5 -83v-14q0 -59 -30.5 -86t-100.5 -27h-868q-68 0 -99.5 26.5t-31.5 86.5z" />
<glyph unicode="&#xa4;" horiz-adv-x="1292" d="M47 504v20q0 35 24.5 57.5t78.5 22.5h71v119h-71q-53 0 -78 23.5t-25 58.5v20q0 35 24.5 57.5t78.5 22.5h90q47 211 193.5 329t363.5 118q102 0 184 -23.5t138.5 -60.5t86 -85t29.5 -98q0 -39 -20.5 -68.5t-47 -47t-48 -24.5t-25.5 -3q-55 80 -121 122t-176 42 q-98 0 -167 -51t-102 -150h326q53 0 77.5 -22.5t24.5 -57.5v-20q0 -35 -24.5 -58.5t-77.5 -23.5h-350v-119h350q53 0 77.5 -22.5t24.5 -57.5v-20q0 -35 -24.5 -57.5t-77.5 -22.5h-326q33 -98 105 -151.5t172 -53.5q111 0 175 44t116 130q4 4 27.5 -2t49 -24.5t47 -47 t21.5 -69.5q0 -43 -26.5 -92t-81 -90t-137.5 -68t-193 -27q-223 0 -371.5 118t-193.5 333h-88q-53 0 -78 22.5t-25 57.5z" />
<glyph unicode="&#xa5;" horiz-adv-x="1257" d="M86 1210q-4 6 3 26.5t26.5 42t55.5 39t89 17.5q47 0 82 -24.5t61 -79.5l228 -428l233 428q31 59 67 82.5t81 23.5q47 0 78.5 -17t50 -40t27 -43t3.5 -27l-319 -493h197q59 0 84.5 -25.5t25.5 -60.5v-23q0 -37 -25.5 -61.5t-84.5 -24.5h-285v-108h285q59 0 84.5 -24.5 t25.5 -61.5v-23q0 -35 -25.5 -60.5t-84.5 -25.5h-285v-94q0 -70 -27.5 -104.5t-93.5 -34.5h-31q-63 0 -89.5 34.5t-26.5 104.5v94h-289q-57 0 -83 25.5t-26 60.5v23q0 37 26 61.5t83 24.5h289v108h-289q-57 0 -83 24.5t-26 61.5v23q0 35 26 60.5t83 25.5h199l-14 21 q-13 22 -35.5 56.5t-51.5 79t-59 91.5q-70 109 -160 245z" />
<glyph unicode="&#xa7;" horiz-adv-x="1165" d="M59 459q0 98 56.5 166.5t160.5 107.5q-74 35 -119.5 94.5t-45.5 159.5q0 82 34.5 149.5t97 114.5t151.5 74t198 27q125 0 209 -23.5t136 -59.5t74.5 -77t22.5 -76q0 -31 -15 -56.5t-33.5 -43t-35 -25.5t-20.5 -6q-61 72 -143 114t-181 42q-92 0 -150.5 -32t-58.5 -93 q0 -63 79 -96t210 -64q74 -18 148.5 -40.5t135 -60.5t98.5 -94.5t38 -140.5q0 -96 -54.5 -164.5t-156.5 -107.5q72 -35 118 -94.5t46 -163.5q0 -82 -35 -148.5t-100.5 -115t-159.5 -74t-211 -25.5q-125 0 -217 22.5t-150.5 58.5t-87 81t-28.5 92q0 29 14 53.5t32.5 41 t34 25.5t17.5 5q59 -74 165.5 -119t221.5 -45q219 0 219 123q0 35 -18.5 57.5t-54 38t-85 27.5t-110.5 27q-74 16 -153 38.5t-144.5 61.5t-107.5 97.5t-42 146.5zM311 502q0 -45 29 -74t77 -49.5t110.5 -33.5t131.5 -28q6 -2 11.5 -3t11.5 -1q80 16 126 61.5t46 98.5 q0 45 -26.5 75t-72.5 49t-106.5 33.5t-128.5 28.5q-4 2 -8 2.5t-8 2.5q-90 -16 -141.5 -62.5t-51.5 -99.5z" />
<glyph unicode="&#xa8;" horiz-adv-x="1024" d="M156 1262q0 72 40 109.5t105 37.5q72 0 112 -38t40 -109q0 -72 -40 -110t-106 -38q-70 0 -110.5 38t-40.5 110zM571 1262q0 72 40 109.5t106 37.5q70 0 110.5 -38t40.5 -109q0 -72 -39.5 -110t-105.5 -38q-72 0 -112 38t-40 110z" />
<glyph unicode="&#xa9;" horiz-adv-x="1527" d="M82 662q0 150 51 275.5t141.5 217.5t216 144.5t275.5 52.5q152 0 276.5 -51.5t215 -142.5t140.5 -217t50 -275q0 -150 -51 -277t-141.5 -219t-216 -144.5t-275.5 -52.5q-152 0 -277 51.5t-215 142.5t-140 218t-50 277zM213 664q0 -123 41 -227.5t114.5 -180.5t175 -119 t222.5 -43q123 0 224.5 42t174 118t112.5 179.5t40 228.5q0 123 -41 227t-115 180t-175 119t-222 43q-123 0 -225.5 -42t-174 -117t-111.5 -179.5t-40 -228.5zM408 659q0 80 28.5 149t78.5 119t118.5 77.5t148.5 27.5q90 0 149.5 -27.5t88.5 -56.5q18 -18 28.5 -37.5 t8.5 -46.5q0 -25 -14.5 -44t-33 -31.5t-33.5 -17.5t-18 -3q-61 88 -170 88q-76 0 -130 -54t-54 -140q0 -88 55.5 -142.5t133.5 -54.5q59 0 101 23.5t71 70.5q2 4 17 -1t33.5 -17.5t33 -33t14.5 -46.5q2 -45 -43 -90q-29 -29 -87.5 -56.5t-148.5 -27.5q-82 0 -151.5 27.5 t-119.5 76.5t-77.5 118t-27.5 150z" />
<glyph unicode="&#xaa;" horiz-adv-x="909" d="M49 743q0 61 23.5 109.5t83 82.5t164 53.5t264.5 25.5q-2 76 -40 116.5t-122 40.5q-78 0 -122 -39.5t-69 -82.5q0 -2 -23.5 -2t-52 9t-52 30.5t-23.5 60.5q0 37 21.5 73.5t65.5 66.5t111.5 47.5t159.5 17.5q199 0 290 -87t91 -253v-463q0 -10 -27.5 -18.5t-62.5 -8.5 q-51 0 -87 28t-48 97q-39 -61 -108.5 -96t-153.5 -35q-131 0 -207 61.5t-76 165.5zM276 766q0 -43 37.5 -67.5t98.5 -24.5q76 0 125 46t49 107v66q-92 -4 -151.5 -14.5t-94.5 -25.5t-49.5 -36.5t-14.5 -50.5zM303 106v25q0 123 123 123h33q125 0 125 -123v-25 q0 -123 -125 -122h-33q-123 0 -123 122z" />
<glyph unicode="&#xab;" horiz-adv-x="1091" d="M68 502q0 12 36.5 65.5t92 113.5t118 107.5t113.5 47.5h4q47 0 70.5 -27t23.5 -68v-4q0 -27 -23.5 -58.5t-59 -62t-79.5 -60t-85 -54.5q41 -25 85 -54.5t79.5 -60.5t59 -61.5t23.5 -59.5v-4q0 -41 -23.5 -67.5t-70.5 -26.5h-4q-51 0 -113.5 47t-118 107.5t-92 113.5 t-36.5 66zM518 502q0 12 40 72.5t99.5 126t128 118.5t123.5 53h4q51 0 78 -28.5t27 -73.5v-6q0 -31 -26.5 -64.5t-67.5 -68.5t-90.5 -67.5t-94.5 -61.5q45 -29 94.5 -61.5t90.5 -67.5t67.5 -69t26.5 -62v-9q0 -43 -26.5 -72.5t-78.5 -29.5h-4q-55 0 -123.5 53.5t-128 119 t-99.5 125.5t-40 73z" />
<glyph unicode="&#xac;" horiz-adv-x="1478" d="M76 662q0 152 51 278.5t143 217.5t221.5 142.5t284.5 51.5q123 0 217 -26t159 -67.5t98.5 -93t33.5 -102.5q0 -41 -22.5 -69.5t-50 -47t-51 -26t-27.5 -2.5q-57 86 -149.5 131t-192.5 45q-88 0 -163 -31t-129.5 -89.5t-85 -139t-30.5 -183.5q0 -100 29.5 -180t83 -137.5 t126 -88t158.5 -30.5q135 0 224.5 69.5t99.5 198.5h-260q-72 0 -105.5 23.5t-33.5 85.5v12q0 66 33.5 87.5t105.5 21.5h465q63 0 80.5 -28t17.5 -93v-19q0 -131 -46 -241.5t-129 -190.5t-197.5 -124t-254.5 -44q-160 0 -290 50.5t-222 141.5t-142 218t-50 279z" />
<glyph unicode="&#xad;" horiz-adv-x="876" d="M74 479v43q0 47 29.5 79t89.5 32h491q59 0 89 -32t30 -79v-43q0 -47 -30 -78.5t-89 -31.5h-491q-59 0 -89 31.5t-30 78.5z" />
<glyph unicode="&#xae;" horiz-adv-x="1527" d="M82 662q0 150 51 275.5t141.5 217.5t216 144.5t275.5 52.5q152 0 276.5 -51.5t215 -142.5t140.5 -217t50 -275q0 -150 -51 -277t-141.5 -219t-216 -144.5t-275.5 -52.5q-152 0 -277 51.5t-215 142.5t-140 218t-50 277zM213 664q0 -123 41 -227.5t114.5 -180.5t175 -119 t222.5 -43q123 0 224.5 42t174 118t112.5 179.5t40 228.5q0 123 -41 227t-115 180t-175 119t-222 43q-123 0 -225.5 -42t-174 -117t-111.5 -179.5t-40 -228.5zM473 410v508q0 106 100 106h220q147 0 223 -57.5t76 -173.5q0 -82 -43 -136.5t-125 -74.5l163 -215 q4 -4 -4 -15.5t-23.5 -24t-37 -21.5t-45.5 -9q-27 0 -57.5 15.5t-55.5 56.5l-125 178h-73v-158q0 -88 -84 -88h-27q-41 0 -61.5 28.5t-20.5 80.5zM662 688h120q57 0 87 24.5t30 67.5q0 94 -121 94h-116v-186z" />
<glyph unicode="&#xaf;" horiz-adv-x="1024" d="M156 1241v12q0 49 33.5 76t93.5 27h458q59 0 93 -26.5t34 -76.5v-12q0 -51 -33.5 -77.5t-93.5 -26.5h-458q-59 0 -93 26.5t-34 77.5z" />
<glyph unicode="&#xb0;" horiz-adv-x="794" d="M68 1014v16q0 72 24.5 131.5t69.5 101.5t105.5 65.5t133.5 23.5q72 0 132.5 -22.5t103.5 -64.5t67.5 -101.5t24.5 -131.5v-16q0 -72 -24.5 -131.5t-69.5 -101.5t-106.5 -65.5t-133.5 -23.5t-132 22.5t-103 64.5t-67.5 101.5t-24.5 131.5zM250 1010q0 -74 44 -117t105 -43 t103.5 42t42.5 118v26q0 74 -43 118t-105 44q-66 0 -106.5 -42t-40.5 -120v-26z" />
<glyph unicode="&#xb1;" horiz-adv-x="915" d="M35 1087q0 37 11 65t25.5 46.5t28 26.5t17.5 6q27 -23 55.5 -34t69.5 -11q66 0 113.5 42t58.5 111h88q133 0 133 -139v-950h110q70 0 105 -28.5t35 -94.5v-10q0 -61 -35 -89t-105 -28h-536q-68 0 -102.5 27.5t-34.5 89.5v10q0 66 34.5 94.5t102.5 28.5h145v719 q-29 -23 -62.5 -37t-72.5 -14q-80 0 -132 47t-52 122z" />
<glyph unicode="&#xb4;" horiz-adv-x="1024" d="M352 1147q-6 10 11.5 47t50 83t78 94t96.5 79q53 35 102 35q55 0 93 -33t38 -80q0 -43 -26.5 -85t-73.5 -70q-59 -37 -122.5 -55.5t-116 -25t-88.5 -2t-42 12.5z" />
<glyph unicode="&#xb5;" horiz-adv-x="1239" d="M55 498q0 119 34 216t95.5 165.5t147.5 105.5t190 37q115 0 200 -47t128 -115q16 90 67.5 120t104.5 30q43 0 75.5 -13.5t32.5 -19.5v-852q0 -80 -35.5 -109.5t-95.5 -29.5h-30q-55 0 -91 30.5t-36 108.5v37q-47 -86 -130 -137.5t-194 -51.5q-100 0 -185 38t-146.5 106.5 t-96.5 166t-35 214.5zM334 496q0 -129 71.5 -211t184.5 -82q47 0 93 15t81 44t56.5 71t21.5 95v201q-31 76 -93.5 119t-154.5 43q-119 0 -189.5 -80t-70.5 -215z" />
<glyph unicode="&#xb6;" horiz-adv-x="1275" d="M43 948q0 190 119 288.5t358 98.5h228q51 0 79.5 -28.5t28.5 -75.5v-1157q0 -88 -80 -88h-26q-41 0 -61.5 23.5t-20.5 64.5v497h-142q-236 0 -359.5 94.5t-123.5 282.5zM969 74v1177q0 88 78 88h26q84 0 84 -88v-1177q0 -88 -84 -88h-26q-78 0 -78 88z" />
<glyph unicode="&#xb7;" horiz-adv-x="501" d="M94 487v29q0 135 135 135h37q139 0 140 -135v-29q0 -135 -140 -135h-37q-135 0 -135 135z" />
<glyph unicode="&#xb8;" horiz-adv-x="1024" d="M299 -408l90 222q16 47 42 69.5t97 22.5h31q55 0 88 -21.5t33 -64.5v-10q0 -29 -19.5 -53.5t-58.5 -55.5l-158 -158q-18 -14 -46.5 -16t-53.5 5t-39 22.5t-6 37.5z" />
<glyph unicode="&#xba;" horiz-adv-x="976" d="M63 930q0 88 32 164.5t89.5 134t136 90.5t171.5 33q92 0 169.5 -32t134 -89t88 -133t31.5 -166q0 -88 -32.5 -166t-89 -134.5t-135.5 -89t-171 -32.5q-94 0 -171.5 31.5t-134 89t-87.5 134.5t-31 165zM276 932q0 -47 16.5 -88t45.5 -72t67.5 -48t83.5 -17 q92 0 151.5 63.5t59.5 161.5t-60 162.5t-151 64.5q-92 0 -152.5 -64.5t-60.5 -162.5zM346 106v25q0 123 123 123h33q125 0 125 -123v-25q0 -123 -125 -122h-33q-123 0 -123 122z" />
<glyph unicode="&#xbb;" horiz-adv-x="1091" d="M76 233v9q0 29 26.5 62.5t66.5 68.5t89 67.5t94 61.5q-45 29 -94 61.5t-89 67.5t-66.5 68.5t-26.5 64.5v6q0 45 26.5 73.5t75.5 28.5h4q57 0 125 -53t127.5 -118.5t99 -126t39.5 -72.5t-39.5 -72.5t-99 -126t-127 -119t-125.5 -53.5h-4q-49 0 -75.5 29.5t-26.5 72.5z M565 262v4q0 29 23.5 59.5t59.5 61.5t80 60.5t85 54.5q-41 25 -85 54.5t-80 60t-59.5 62.5t-23.5 58v4q0 41 23.5 68t70.5 27h5q51 0 113.5 -47.5t117.5 -107.5t92 -113.5t37 -65.5t-37 -65.5t-92 -114t-117.5 -107.5t-113.5 -47h-5q-47 0 -70.5 26.5t-23.5 67.5z" />
<glyph unicode="&#xbf;" horiz-adv-x="1021" d="M43 342q0 84 27.5 139.5t70.5 94t93.5 67.5t93.5 59.5t74.5 69.5t35.5 98q12 55 117 56q53 0 88 -24.5t35 -76.5q-2 -84 -29.5 -139t-66.5 -93t-85 -61.5t-85 -47t-64.5 -51t-25.5 -71.5q0 -70 49 -110.5t141 -40.5q66 0 113 20.5t78.5 53t50 75.5t24.5 86q0 2 31 2.5 t67.5 -13t67.5 -43.5t31 -89q0 -55 -30 -112.5t-88 -105.5t-146 -79t-205 -31q-217 0 -340 100.5t-123 266.5zM397 1178v28q0 135 140 135h34q137 0 138 -135v-28q0 -137 -138 -138h-34q-139 0 -140 138z" />
<glyph unicode="&#xc0;" horiz-adv-x="1343" d="M20 78l453 1169q12 41 52 65.5t145 24.5q102 0 141 -24.5t53 -65.5l463 -1167q4 -8 -8 -24.5t-35.5 -32t-54.5 -26.5t-66 -11q-49 0 -96 30.5t-78 112.5l-80 209h-483l-82 -213q-29 -78 -74 -108.5t-92 -30.5q-31 0 -61.5 10t-53 25.5t-35 31t-8.5 25.5zM326 1702 q0 47 37.5 80t93.5 33q49 0 102 -35q51 -31 96 -79t78 -94t50.5 -83t11.5 -47q-6 -8 -42 -12.5t-88.5 2t-116 25t-122.5 55.5q-47 29 -73.5 70.5t-26.5 84.5zM483 563h363l-8 21q-7 20 -19 54t-28.5 78t-34.5 89q-39 106 -90 242z" />
<glyph unicode="&#xc1;" horiz-adv-x="1343" d="M20 78l453 1169q12 41 52 65.5t145 24.5q102 0 141 -24.5t53 -65.5l463 -1167q4 -8 -8 -24.5t-35.5 -32t-54.5 -26.5t-66 -11q-49 0 -96 30.5t-78 112.5l-80 209h-483l-82 -213q-29 -78 -74 -108.5t-92 -30.5q-31 0 -61.5 10t-53 25.5t-35 31t-8.5 25.5zM483 563h363 l-8 21q-7 20 -19 54t-28.5 78t-34.5 89q-39 106 -90 242zM534 1477q-6 10 11.5 47t50 83t78 94t96.5 79q53 35 102 35q55 0 93 -33t38 -80q0 -43 -26.5 -85t-73.5 -70q-59 -37 -122.5 -55.5t-116 -25t-88.5 -2t-42 12.5z" />
<glyph unicode="&#xc2;" horiz-adv-x="1343" d="M20 78l453 1169q12 41 52 65.5t145 24.5q102 0 141 -24.5t53 -65.5l463 -1167q4 -8 -8 -24.5t-35.5 -32t-54.5 -26.5t-66 -11q-49 0 -96 30.5t-78 112.5l-80 209h-483l-82 -213q-29 -78 -74 -108.5t-92 -30.5q-31 0 -61.5 10t-53 25.5t-35 31t-8.5 25.5zM361 1534 q0 47 37.5 98.5t88 96.5t102.5 76.5t83 40.5q31 -8 82 -40t102.5 -77t88 -96.5t36.5 -98.5q0 -41 -25.5 -65.5t-66.5 -24.5q-100 0 -217 207q-121 -207 -217 -207q-41 0 -67.5 24.5t-26.5 65.5zM483 563h363l-8 21q-7 20 -19 54t-28.5 78t-34.5 89q-39 106 -90 242z" />
<glyph unicode="&#xc3;" horiz-adv-x="1343" d="M20 78l453 1169q12 41 52 65.5t145 24.5q102 0 141 -24.5t53 -65.5l463 -1167q4 -8 -8 -24.5t-35.5 -32t-54.5 -26.5t-66 -11q-49 0 -96 30.5t-78 112.5l-80 209h-483l-82 -213q-29 -78 -74 -108.5t-92 -30.5q-31 0 -61.5 10t-53 25.5t-35 31t-8.5 25.5zM338 1549 q0 92 54.5 151.5t127.5 59.5q66 0 139.5 -36t147.5 -106q16 53 46 93t71 40q45 0 70.5 -28.5t25.5 -69.5q0 -92 -54.5 -150.5t-127.5 -58.5q-66 0 -139.5 35t-147.5 104q-16 -53 -46 -93t-71 -40q-43 0 -69.5 29t-26.5 70zM483 563h363l-8 21q-7 20 -19 54t-28.5 78 t-34.5 89q-39 106 -90 242z" />
<glyph unicode="&#xc4;" horiz-adv-x="1343" d="M20 78l453 1169q12 41 52 65.5t145 24.5q102 0 141 -24.5t53 -65.5l463 -1167q4 -8 -8 -24.5t-35.5 -32t-54.5 -26.5t-66 -11q-49 0 -96 30.5t-78 112.5l-80 209h-483l-82 -213q-29 -78 -74 -108.5t-92 -30.5q-31 0 -61.5 10t-53 25.5t-35 31t-8.5 25.5zM316 1592 q0 72 40 109.5t105 37.5q72 0 112 -38t40 -109q0 -72 -40 -110t-106 -38q-70 0 -110.5 38t-40.5 110zM483 563h363l-8 21q-7 20 -19 54t-28.5 78t-34.5 89q-39 106 -90 242zM731 1592q0 72 40 109.5t106 37.5q70 0 110.5 -38t40.5 -109q0 -72 -39.5 -110t-105.5 -38 q-72 0 -112 38t-40 110z" />
<glyph unicode="&#xc5;" horiz-adv-x="1343" d="M20 78l453 1169q10 23 41 35q-47 31 -73.5 81t-26.5 116q0 53 19.5 99t54 80t81.5 53.5t103 19.5q113 0 184.5 -71t71.5 -181q0 -66 -28 -116t-77 -81q29 -12 39 -35l465 -1167q4 -8 -8 -24.5t-35.5 -32t-54.5 -26.5t-66 -11q-49 0 -96 30.5t-78 112.5l-80 209h-483 l-82 -213q-29 -78 -74 -108.5t-92 -30.5q-31 0 -61.5 10t-53 25.5t-35 31t-8.5 25.5zM483 563h365l-182 486zM559 1479q0 -49 32 -83t79 -34t79.5 34t32.5 83q0 51 -32.5 85.5t-79.5 34.5t-79 -34.5t-32 -85.5z" />
<glyph unicode="&#xc6;" horiz-adv-x="1792" d="M20 78l443 1143q16 47 57 75.5t137 28.5h922q72 0 105.5 -34t33.5 -93v-10q0 -127 -139 -127h-651l100 -262h391q74 0 107 -30t33 -87v-8q0 -123 -140 -123h-289l113 -289h346q139 0 140 -119v-12q0 -131 -140 -131h-393q-86 0 -133 27.5t-82 113.5l-74 197h-481 l-82 -213q-29 -80 -74 -109.5t-92 -29.5q-33 0 -62.5 10t-52 25.5t-35 31t-8.5 25.5zM483 563h363l-180 484z" />
<glyph unicode="&#xc7;" horiz-adv-x="1339" d="M76 662q0 152 50 278.5t140 217.5t216 142.5t278 51.5q131 0 227 -32t158.5 -78t93.5 -97t31 -92q0 -49 -26.5 -81t-58.5 -49.5t-59.5 -22.5t-29.5 -1q-49 86 -136.5 133t-189.5 47q-82 0 -152.5 -29.5t-122 -85t-80 -132t-28.5 -168.5t28.5 -169t81 -132.5t123 -86 t154.5 -30.5q117 0 204 53t126 147q2 4 29.5 -1t61.5 -22t61.5 -49t27.5 -81q0 -43 -31.5 -98.5t-96 -104.5t-164 -83t-236.5 -34q-150 0 -276 50.5t-215 141.5t-139 218t-50 279zM510 -408l90 222q16 47 42 69.5t97 22.5h31q55 0 88 -21.5t33 -64.5v-10q0 -29 -19.5 -53.5 t-58.5 -55.5l-158 -158q-18 -14 -46.5 -16t-53.5 5t-39 22.5t-6 37.5z" />
<glyph unicode="&#xc8;" horiz-adv-x="1228" d="M119 166v991q0 80 42 124t115 44h740q72 0 105.5 -34t33.5 -93v-10q0 -127 -139 -127h-594v-262h434q74 0 106.5 -31t32.5 -86v-8q0 -123 -139 -123h-434v-289h604q139 0 139 -119v-12q0 -131 -139 -131h-750q-74 0 -115.5 43t-41.5 123zM353 1702q0 47 37.5 80t93.5 33 q49 0 102 -35q51 -31 96 -79t78 -94t50.5 -83t11.5 -47q-6 -8 -42 -12.5t-88.5 2t-116 25t-122.5 55.5q-47 29 -73.5 70.5t-26.5 84.5z" />
<glyph unicode="&#xc9;" horiz-adv-x="1228" d="M119 166v991q0 80 42 124t115 44h740q72 0 105.5 -34t33.5 -93v-10q0 -127 -139 -127h-594v-262h434q74 0 106.5 -31t32.5 -86v-8q0 -123 -139 -123h-434v-289h604q139 0 139 -119v-12q0 -131 -139 -131h-750q-74 0 -115.5 43t-41.5 123zM458 1477q-6 10 11.5 47t50 83 t78 94t96.5 79q53 35 102 35q55 0 93 -33t38 -80q0 -43 -26.5 -85t-73.5 -70q-59 -37 -122.5 -55.5t-116 -25t-88.5 -2t-42 12.5z" />
<glyph unicode="&#xca;" horiz-adv-x="1228" d="M119 166v991q0 80 42 124t115 44h740q72 0 105.5 -34t33.5 -93v-10q0 -127 -139 -127h-594v-262h434q74 0 106.5 -31t32.5 -86v-8q0 -123 -139 -123h-434v-289h604q139 0 139 -119v-12q0 -131 -139 -131h-750q-74 0 -115.5 43t-41.5 123zM334 1534q0 47 37.5 98.5 t88 96.5t102.5 76.5t83 40.5q31 -8 82 -40t102.5 -77t88 -96.5t36.5 -98.5q0 -41 -25.5 -65.5t-66.5 -24.5q-100 0 -217 207q-121 -207 -217 -207q-41 0 -67.5 24.5t-26.5 65.5z" />
<glyph unicode="&#xcb;" horiz-adv-x="1228" d="M119 166v991q0 80 42 124t115 44h740q72 0 105.5 -34t33.5 -93v-10q0 -127 -139 -127h-594v-262h434q74 0 106.5 -31t32.5 -86v-8q0 -123 -139 -123h-434v-289h604q139 0 139 -119v-12q0 -131 -139 -131h-750q-74 0 -115.5 43t-41.5 123zM289 1592q0 72 40 109.5 t105 37.5q72 0 112 -38t40 -109q0 -72 -40 -110t-106 -38q-70 0 -110.5 38t-40.5 110zM704 1592q0 72 40 109.5t106 37.5q70 0 110.5 -38t40.5 -109q0 -72 -39.5 -110t-105.5 -38q-72 0 -112 38t-40 110z" />
<glyph unicode="&#xcc;" horiz-adv-x="573" d="M-32 1702q0 47 37.5 80t93.5 33q49 0 102 -35q51 -31 96 -79t78 -94t50.5 -83t11.5 -47q-6 -8 -42 -12.5t-88.5 2t-116 25t-122.5 55.5q-47 29 -73.5 70.5t-26.5 84.5zM135 129v1067q0 137 129 137h41q133 0 133 -137v-1067q0 -137 -133 -137h-41q-129 0 -129 137z" />
<glyph unicode="&#xcd;" horiz-adv-x="573" d="M127 1477q-6 10 11.5 47t50 83t78 94t96.5 79q53 35 102 35q55 0 93 -33t38 -80q0 -43 -26.5 -85t-73.5 -70q-59 -37 -122.5 -55.5t-116 -25t-88.5 -2t-42 12.5zM135 129v1067q0 137 129 137h41q133 0 133 -137v-1067q0 -137 -133 -137h-41q-129 0 -129 137z" />
<glyph unicode="&#xce;" horiz-adv-x="573" d="M-28 1534q0 47 37.5 98.5t88 96.5t102.5 76.5t83 40.5q31 -8 82 -40t102.5 -77t88 -96.5t36.5 -98.5q0 -41 -25.5 -65.5t-66.5 -24.5q-100 0 -217 207q-121 -207 -217 -207q-41 0 -67.5 24.5t-26.5 65.5zM135 129v1067q0 137 129 137h41q133 0 133 -137v-1067 q0 -137 -133 -137h-41q-129 0 -129 137z" />
<glyph unicode="&#xcf;" horiz-adv-x="573" d="M-73 1592q0 72 40 109.5t105 37.5q72 0 112 -38t40 -109q0 -72 -40 -110t-106 -38q-70 0 -110.5 38t-40.5 110zM135 129v1067q0 137 129 137h41q133 0 133 -137v-1067q0 -137 -133 -137h-41q-129 0 -129 137zM342 1592q0 72 40 109.5t106 37.5q70 0 110.5 -38t40.5 -109 q0 -72 -39.5 -110t-105.5 -38q-72 0 -112 38t-40 110z" />
<glyph unicode="&#xd0;" horiz-adv-x="1486" d="M16 653v25q0 39 25 66.5t80 27.5h74v385q0 80 46 124t113 44h340q166 0 299 -45t226.5 -130t143.5 -207t50 -275q0 -154 -51 -278t-145.5 -210t-229.5 -133t-301 -47h-324q-70 0 -118.5 48t-48.5 118v391h-74q-55 0 -80 27.5t-25 68.5zM496 260h194q201 0 312.5 105.5 t111.5 300.5q0 190 -110.5 294.5t-309.5 104.5h-198v-293h256q55 0 78.5 -27.5t23.5 -66.5v-25q0 -41 -23.5 -68.5t-78.5 -27.5h-256v-297z" />
<glyph unicode="&#xd1;" horiz-adv-x="1417" d="M119 129v1055q0 72 34.5 110.5t96.5 38.5h37q59 0 89 -20.5t64 -65.5l574 -788v737q0 137 129 137h28q127 0 127 -137v-1055q0 -74 -34.5 -111.5t-94.5 -37.5h-24q-59 0 -86 16.5t-60 57.5l-596 819v-756q0 -137 -131 -137h-28q-125 0 -125 137zM369 1549 q0 92 54.5 151.5t127.5 59.5q66 0 139.5 -36t147.5 -106q16 53 46 93t71 40q45 0 70.5 -28.5t25.5 -69.5q0 -92 -54.5 -150.5t-127.5 -58.5q-66 0 -139.5 35t-147.5 104q-16 -53 -46 -93t-71 -40q-43 0 -69.5 29t-26.5 70z" />
<glyph unicode="&#xd2;" horiz-adv-x="1509" d="M72 662q0 152 51 278.5t142 217.5t216 142.5t275 51.5q152 0 276.5 -51.5t214.5 -142.5t140.5 -217t50.5 -277q0 -152 -50.5 -279t-141.5 -218t-215.5 -142.5t-276.5 -51.5q-150 0 -276 50.5t-216 141.5t-140 218t-50 279zM373 664q0 -94 27.5 -172t78.5 -133.5t121 -86 t156 -30.5t155.5 29.5t120.5 85t79 133t28 172.5q0 94 -29 171.5t-79 134t-120.5 87t-156.5 30.5t-156 -29.5t-120 -85t-77.5 -133t-27.5 -173.5zM422 1702q0 47 37.5 80t93.5 33q49 0 102 -35q51 -31 96 -79t78 -94t50.5 -83t11.5 -47q-6 -8 -42 -12.5t-88.5 2t-116 25 t-122.5 55.5q-47 29 -73.5 70.5t-26.5 84.5z" />
<glyph unicode="&#xd3;" horiz-adv-x="1509" d="M72 662q0 152 51 278.5t142 217.5t216 142.5t275 51.5q152 0 276.5 -51.5t214.5 -142.5t140.5 -217t50.5 -277q0 -152 -50.5 -279t-141.5 -218t-215.5 -142.5t-276.5 -51.5q-150 0 -276 50.5t-216 141.5t-140 218t-50 279zM373 664q0 -94 27.5 -172t78.5 -133.5t121 -86 t156 -30.5t155.5 29.5t120.5 85t79 133t28 172.5q0 94 -29 171.5t-79 134t-120.5 87t-156.5 30.5t-156 -29.5t-120 -85t-77.5 -133t-27.5 -173.5zM600 1477q-6 10 11.5 47t50 83t78 94t96.5 79q53 35 102 35q55 0 93 -33t38 -80q0 -43 -26.5 -85t-73.5 -70 q-59 -37 -122.5 -55.5t-116 -25t-88.5 -2t-42 12.5z" />
<glyph unicode="&#xd4;" horiz-adv-x="1509" d="M72 662q0 152 51 278.5t142 217.5t216 142.5t275 51.5q152 0 276.5 -51.5t214.5 -142.5t140.5 -217t50.5 -277q0 -152 -50.5 -279t-141.5 -218t-215.5 -142.5t-276.5 -51.5q-150 0 -276 50.5t-216 141.5t-140 218t-50 279zM373 664q0 -94 27.5 -172t78.5 -133.5t121 -86 t156 -30.5t155.5 29.5t120.5 85t79 133t28 172.5q0 94 -29 171.5t-79 134t-120.5 87t-156.5 30.5t-156 -29.5t-120 -85t-77.5 -133t-27.5 -173.5zM445 1534q0 47 37.5 98.5t88 96.5t102.5 76.5t83 40.5q31 -8 82 -40t102.5 -77t88 -96.5t36.5 -98.5q0 -41 -25.5 -65.5 t-66.5 -24.5q-100 0 -217 207q-121 -207 -217 -207q-41 0 -67.5 24.5t-26.5 65.5z" />
<glyph unicode="&#xd5;" horiz-adv-x="1509" d="M72 662q0 152 51 278.5t142 217.5t216 142.5t275 51.5q152 0 276.5 -51.5t214.5 -142.5t140.5 -217t50.5 -277q0 -152 -50.5 -279t-141.5 -218t-215.5 -142.5t-276.5 -51.5q-150 0 -276 50.5t-216 141.5t-140 218t-50 279zM373 664q0 -94 27.5 -172t78.5 -133.5t121 -86 t156 -30.5t155.5 29.5t120.5 85t79 133t28 172.5q0 94 -29 171.5t-79 134t-120.5 87t-156.5 30.5t-156 -29.5t-120 -85t-77.5 -133t-27.5 -173.5zM416 1549q0 92 54.5 151.5t127.5 59.5q66 0 139.5 -36t147.5 -106q16 53 46 93t71 40q45 0 70.5 -28.5t25.5 -69.5 q0 -92 -54.5 -150.5t-127.5 -58.5q-66 0 -139.5 35t-147.5 104q-16 -53 -46 -93t-71 -40q-43 0 -69.5 29t-26.5 70z" />
<glyph unicode="&#xd6;" horiz-adv-x="1509" d="M72 662q0 152 51 278.5t142 217.5t216 142.5t275 51.5q152 0 276.5 -51.5t214.5 -142.5t140.5 -217t50.5 -277q0 -152 -50.5 -279t-141.5 -218t-215.5 -142.5t-276.5 -51.5q-150 0 -276 50.5t-216 141.5t-140 218t-50 279zM373 664q0 -94 27.5 -172t78.5 -133.5t121 -86 t156 -30.5t155.5 29.5t120.5 85t79 133t28 172.5q0 94 -29 171.5t-79 134t-120.5 87t-156.5 30.5t-156 -29.5t-120 -85t-77.5 -133t-27.5 -173.5zM400 1592q0 72 40 109.5t105 37.5q72 0 112 -38t40 -109q0 -72 -40 -110t-106 -38q-70 0 -110.5 38t-40.5 110zM815 1592 q0 72 40 109.5t106 37.5q70 0 110.5 -38t40.5 -109q0 -72 -39.5 -110t-105.5 -38q-72 0 -112 38t-40 110z" />
<glyph unicode="&#xd7;" horiz-adv-x="1134" d="M142 215q-1 41 44 84l230 227l-230 228q-45 43 -43 84t31 73l19 17q31 33 71.5 33t85.5 -48l219 -231l219 231q45 47 87.5 47.5t72.5 -32.5l17 -17q31 -33 32.5 -73.5t-43.5 -83.5l-231 -228l231 -227q45 -43 44 -84t-33 -74l-19 -16q-29 -31 -70.5 -33t-87.5 45 l-219 234l-219 -234q-45 -47 -86 -45t-71 33l-17 16q-33 33 -34 74z" />
<glyph unicode="&#xd8;" horiz-adv-x="1509" d="M74 662q0 147 50 273t140 219t216 145.5t278 52.5q115 0 213 -30t178 -83l147 164q4 4 23.5 0t41 -17.5t39 -34t17.5 -48.5q0 -23 -10 -46.5t-37 -52.5l-82 -90q72 -90 112 -203.5t40 -246.5q0 -147 -50.5 -274.5t-140.5 -219.5t-216 -144.5t-277 -52.5q-117 0 -215.5 30 t-180.5 85l-26 -26q-25 -27 -53 -62q-37 -39 -82 -88q-4 -6 -23.5 -1t-41 18.5t-39 34t-17.5 48.5q0 20 10 44t37 55l96 106q-72 88 -109.5 200.5t-37.5 244.5zM354 664q0 -137 60 -240l553 614q-45 27 -98.5 41.5t-112.5 14.5q-92 0 -166 -32t-126 -89.5t-81 -136 t-29 -172.5zM541 291q94 -59 217 -60q92 0 165.5 32t127 89.5t82 136t28.5 173.5q0 141 -63 245z" />
<glyph unicode="&#xd9;" horiz-adv-x="1357" d="M109 557v639q0 70 34.5 103.5t96.5 33.5h39q131 0 131 -137v-635q0 -322 270 -321q268 0 268 321v635q0 137 131 137h41q129 0 129 -137v-635q0 -289 -144 -436.5t-427 -147.5t-426 145.5t-143 434.5zM355 1691q0 47 37.5 80t93.5 33q49 0 102 -35q51 -31 96 -79t78 -94 t50.5 -83t11.5 -47q-6 -8 -42 -12.5t-88.5 2t-116 25t-122.5 55.5q-47 29 -73.5 70.5t-26.5 84.5z" />
<glyph unicode="&#xda;" horiz-adv-x="1357" d="M109 557v639q0 70 34.5 103.5t96.5 33.5h39q131 0 131 -137v-635q0 -322 270 -321q268 0 268 321v635q0 137 131 137h41q129 0 129 -137v-635q0 -289 -144 -436.5t-427 -147.5t-426 145.5t-143 434.5zM540 1466q-6 10 11.5 47t50 83t78 94t96.5 79q53 35 102 35 q55 0 93 -33t38 -80q0 -43 -26.5 -85t-73.5 -70q-59 -37 -122.5 -55.5t-116 -25t-88.5 -2t-42 12.5z" />
<glyph unicode="&#xdb;" horiz-adv-x="1357" d="M109 557v639q0 70 34.5 103.5t96.5 33.5h39q131 0 131 -137v-635q0 -322 270 -321q268 0 268 321v635q0 137 131 137h41q129 0 129 -137v-635q0 -289 -144 -436.5t-427 -147.5t-426 145.5t-143 434.5zM367 1534q0 47 37.5 98.5t88 96.5t102.5 76.5t83 40.5q31 -8 82 -40 t102.5 -77t88 -96.5t36.5 -98.5q0 -41 -25.5 -65.5t-66.5 -24.5q-100 0 -217 207q-121 -207 -217 -207q-41 0 -67.5 24.5t-26.5 65.5z" />
<glyph unicode="&#xdc;" horiz-adv-x="1357" d="M109 557v639q0 70 34.5 103.5t96.5 33.5h39q131 0 131 -137v-635q0 -322 270 -321q268 0 268 321v635q0 137 131 137h41q129 0 129 -137v-635q0 -289 -144 -436.5t-427 -147.5t-426 145.5t-143 434.5zM322 1592q0 72 40 109.5t105 37.5q72 0 112 -38t40 -109 q0 -72 -40 -110t-106 -38q-70 0 -110.5 38t-40.5 110zM737 1592q0 72 40 109.5t106 37.5q70 0 110.5 -38t40.5 -109q0 -72 -39.5 -110t-105.5 -38q-72 0 -112 38t-40 110z" />
<glyph unicode="&#xdd;" horiz-adv-x="1234" d="M4 1217q-4 6 5 25.5t31.5 38.5t61.5 35.5t95 16.5q41 0 77.5 -25.5t65.5 -78.5l278 -455l283 453q35 59 72 82.5t74 23.5q51 0 86.5 -16.5t59.5 -36.5t33 -38.5t5 -24.5l-461 -685v-403q0 -137 -133 -137h-41q-129 0 -129 137v403zM467 1466q-6 10 11.5 47t50 83t78 94 t96.5 79q53 35 102 35q55 0 93 -33t38 -80q0 -43 -26.5 -85t-73.5 -70q-59 -37 -122.5 -55.5t-116 -25t-88.5 -2t-42 12.5z" />
<glyph unicode="&#xde;" horiz-adv-x="1222" d="M119 129v1067q0 137 127 137h43q133 0 133 -137v-90h194q268 0 407.5 -111.5t139.5 -328.5t-136 -327t-409 -110h-196v-100q0 -137 -133 -137h-43q-127 0 -127 137zM422 459h194q256 0 256 205q0 207 -251 206h-199v-411z" />
<glyph unicode="&#xdf;" horiz-adv-x="1198" d="M109 125v807q0 262 124.5 382t380.5 120q217 0 341 -94.5t124 -252.5q0 -123 -61.5 -193t-186.5 -95q170 -55 250 -166t80 -258q0 -88 -29.5 -162t-82 -127t-125 -83t-156.5 -30q-147 0 -222 50.5t-75 126.5q0 27 10.5 49t23.5 38.5t24.5 25.5t13.5 7q29 -29 65.5 -49 t104.5 -20q72 0 122 50t50 122q0 80 -49.5 140t-182.5 97q-59 18 -93 50t-34 102q0 27 8.5 49.5t18.5 38.5q10 18 25 35q111 0 168 39t57 127q0 76 -52.5 119.5t-140.5 43.5q-104 0 -158.5 -62t-54.5 -198v-829q0 -70 -34.5 -104.5t-94.5 -34.5h-30q-59 0 -94 35.5 t-35 103.5z" />
<glyph unicode="&#xe0;" horiz-adv-x="1118" d="M57 266q0 174 157 255t486 85h33q0 199 -205 199q-104 0 -161.5 -47t-85.5 -107q0 -2 -29 -1t-64.5 11.5t-64.5 37t-29 75.5q0 47 28 91t84 79t141 56.5t200 21.5q238 0 354.5 -104.5t116.5 -307.5v-592q0 -10 -34 -21t-75 -11q-68 0 -112.5 37.5t-57.5 121.5 q-53 -78 -143 -123t-203 -45q-158 0 -247 80t-89 209zM258 1372q0 47 37.5 80t93.5 33q49 0 102 -35q51 -31 96 -79t78 -94t50.5 -83t11.5 -47q-6 -8 -42 -12.5t-88.5 2t-116 25t-122.5 55.5q-47 29 -73.5 70.5t-26.5 84.5zM334 287q0 -55 41.5 -88t113.5 -33 q109 0 176.5 63.5t67.5 161.5v58l-53 -3q-172 -4 -259 -40.5t-87 -118.5z" />
<glyph unicode="&#xe1;" horiz-adv-x="1118" d="M57 266q0 174 157 255t486 85h33q0 199 -205 199q-104 0 -161.5 -47t-85.5 -107q0 -2 -29 -1t-64.5 11.5t-64.5 37t-29 75.5q0 47 28 91t84 79t141 56.5t200 21.5q238 0 354.5 -104.5t116.5 -307.5v-592q0 -10 -34 -21t-75 -11q-68 0 -112.5 37.5t-57.5 121.5 q-53 -78 -143 -123t-203 -45q-158 0 -247 80t-89 209zM334 287q0 -55 41.5 -88t113.5 -33q109 0 176.5 63.5t67.5 161.5v58l-53 -3q-172 -4 -259 -40.5t-87 -118.5zM391 1147q-6 10 11.5 47t50 83t78 94t96.5 79q53 35 102 35q55 0 93 -33t38 -80q0 -43 -26.5 -85t-73.5 -70 q-59 -37 -122.5 -55.5t-116 -25t-88.5 -2t-42 12.5z" />
<glyph unicode="&#xe2;" horiz-adv-x="1118" d="M57 266q0 174 157 255t486 85h33q0 199 -205 199q-104 0 -161.5 -47t-85.5 -107q0 -2 -29 -1t-64.5 11.5t-64.5 37t-29 75.5q0 47 28 91t84 79t141 56.5t200 21.5q238 0 354.5 -104.5t116.5 -307.5v-592q0 -10 -34 -21t-75 -11q-68 0 -112.5 37.5t-57.5 121.5 q-53 -78 -143 -123t-203 -45q-158 0 -247 80t-89 209zM250 1204q0 47 37.5 98.5t88 96.5t102.5 76.5t83 40.5q31 -8 82 -40t102.5 -77t88 -96.5t36.5 -98.5q0 -41 -25.5 -65.5t-66.5 -24.5q-100 0 -217 207q-121 -207 -217 -207q-41 0 -67.5 24.5t-26.5 65.5zM334 287 q0 -55 41.5 -88t113.5 -33q109 0 176.5 63.5t67.5 161.5v58l-53 -3q-172 -4 -259 -40.5t-87 -118.5z" />
<glyph unicode="&#xe3;" horiz-adv-x="1118" d="M57 266q0 174 157 255t486 85h33q0 199 -205 199q-104 0 -161.5 -47t-85.5 -107q0 -2 -29 -1t-64.5 11.5t-64.5 37t-29 75.5q0 47 28 91t84 79t141 56.5t200 21.5q238 0 354.5 -104.5t116.5 -307.5v-592q0 -10 -34 -21t-75 -11q-68 0 -112.5 37.5t-57.5 121.5 q-53 -78 -143 -123t-203 -45q-158 0 -247 80t-89 209zM211 1219q0 92 54.5 151.5t127.5 59.5q66 0 139.5 -36t147.5 -106q16 53 46 93t71 40q45 0 70.5 -28.5t25.5 -69.5q0 -92 -54.5 -150.5t-127.5 -58.5q-66 0 -139.5 35t-147.5 104q-16 -53 -46 -93t-71 -40 q-43 0 -69.5 29t-26.5 70zM334 287q0 -55 41.5 -88t113.5 -33q109 0 176.5 63.5t67.5 161.5v58l-53 -3q-172 -4 -259 -40.5t-87 -118.5z" />
<glyph unicode="&#xe4;" horiz-adv-x="1118" d="M57 266q0 174 157 255t486 85h33q0 199 -205 199q-104 0 -161.5 -47t-85.5 -107q0 -2 -29 -1t-64.5 11.5t-64.5 37t-29 75.5q0 47 28 91t84 79t141 56.5t200 21.5q238 0 354.5 -104.5t116.5 -307.5v-592q0 -10 -34 -21t-75 -11q-68 0 -112.5 37.5t-57.5 121.5 q-53 -78 -143 -123t-203 -45q-158 0 -247 80t-89 209zM195 1262q0 72 40 109.5t105 37.5q72 0 112 -38t40 -109q0 -72 -40 -110t-106 -38q-70 0 -110.5 38t-40.5 110zM334 287q0 -55 41.5 -88t113.5 -33q109 0 176.5 63.5t67.5 161.5v58l-53 -3q-172 -4 -259 -40.5 t-87 -118.5zM610 1262q0 72 40 109.5t106 37.5q70 0 110.5 -38t40.5 -109q0 -72 -39.5 -110t-105.5 -38q-72 0 -112 38t-40 110z" />
<glyph unicode="&#xe5;" horiz-adv-x="1118" d="M57 266q0 174 157 255t486 85h33q0 199 -205 199q-104 0 -161.5 -47t-85.5 -107q0 -2 -29 -1t-64.5 11.5t-64.5 37t-29 75.5q0 47 28 91t84 79t141 56.5t200 21.5q238 0 354.5 -104.5t116.5 -307.5v-592q0 -10 -34 -21t-75 -11q-68 0 -112.5 37.5t-57.5 121.5 q-53 -78 -143 -123t-203 -45q-158 0 -247 80t-89 209zM293 1364q0 53 19.5 98t53 79t82 53.5t103.5 19.5q117 0 186.5 -70.5t69.5 -179.5t-71.5 -179.5t-186.5 -70.5q-117 0 -186.5 70.5t-69.5 179.5zM334 287q0 -55 41.5 -88t113.5 -33q109 0 176.5 63.5t67.5 161.5v58 l-53 -3q-172 -4 -259 -40.5t-87 -118.5zM438 1364q0 -49 32 -84t79 -35q49 0 81 34t32 85t-33 86t-80 35t-79 -35t-32 -86z" />
<glyph unicode="&#xe6;" horiz-adv-x="1779" d="M57 266q0 174 157 255t486 85l33 2q0 96 -52 146.5t-153 50.5q-104 0 -161.5 -47t-85.5 -107q0 -2 -29 -1t-64.5 11.5t-64.5 37t-29 75.5q0 47 26.5 91t81 79t135.5 56.5t187 21.5q250 0 355 -145q63 70 151 107.5t199 37.5t203 -37t158.5 -103.5t102.5 -157.5t36 -202 v-20q-2 -39 -16.5 -59.5t-53.5 -20.5h-688q14 -113 92 -175.5t197 -62.5q113 0 179 44t101 104q0 2 22.5 -2t48 -18.5t47 -41t21.5 -69.5q0 -39 -28.5 -80t-83 -74t-134 -53.5t-184.5 -20.5q-162 0 -271.5 57.5t-166.5 168.5q-53 -98 -162.5 -160t-253.5 -62q-156 0 -247 80 t-91 209zM334 287q0 -55 41.5 -88t113.5 -33q109 0 176.5 63.5t67.5 161.5v58l-53 -3q-172 -4 -259 -40.5t-87 -118.5zM969 590h491q-6 104 -67.5 167.5t-165.5 63.5q-102 0 -173 -64.5t-85 -166.5z" />
<glyph unicode="&#xe7;" horiz-adv-x="1052" d="M55 498q0 115 39 211t109.5 164.5t167 107.5t211.5 39t195.5 -28.5t132 -70.5t75 -89.5t23.5 -81.5q0 -43 -25 -70t-53.5 -41t-54 -17.5t-27.5 1.5q-29 72 -88.5 118.5t-165.5 46.5q-59 0 -109.5 -21.5t-86.5 -60t-56 -92t-20 -116.5t20 -117.5t56 -93.5t86.5 -60.5 t109.5 -21.5q104 0 164.5 47t89.5 119q2 4 26.5 2t54 -16.5t54.5 -41t25 -73.5q0 -35 -25 -81t-77 -88t-131.5 -71t-192.5 -29q-117 0 -213.5 39t-166 108.5t-108.5 166t-39 211.5zM350 -408l90 222q16 47 42 69.5t98 22.5h30q55 0 88 -21.5t33 -64.5v-10q0 -29 -19.5 -53.5 t-58.5 -55.5l-157 -158q-18 -14 -47 -16t-53.5 5t-39 22.5t-6.5 37.5z" />
<glyph unicode="&#xe8;" horiz-adv-x="1126" d="M55 492q0 115 39 212t108.5 167.5t166 110.5t209.5 40q111 0 201.5 -37t157.5 -103.5t102.5 -157.5t35.5 -202v-20q-2 -39 -15 -59.5t-54 -20.5h-689q16 -113 94 -175.5t195 -62.5q115 0 181.5 44t101.5 104q0 2 22.5 -2t48 -18.5t47 -41t21.5 -69.5q0 -39 -28.5 -80 t-83 -74t-135.5 -53.5t-185 -20.5q-123 0 -222.5 37t-170 104.5t-109.5 163t-39 214.5zM248 1372q0 47 37.5 80t93.5 33q49 0 102 -35q51 -31 96 -79t78 -94t50.5 -83t11.5 -47q-6 -8 -42 -12.5t-88.5 2t-116 25t-122.5 55.5q-47 29 -73.5 70.5t-26.5 84.5zM317 590h490 q-4 104 -66.5 167.5t-167.5 63.5q-102 0 -171.5 -64.5t-84.5 -166.5z" />
<glyph unicode="&#xe9;" horiz-adv-x="1126" d="M55 492q0 115 39 212t108.5 167.5t166 110.5t209.5 40q111 0 201.5 -37t157.5 -103.5t102.5 -157.5t35.5 -202v-20q-2 -39 -15 -59.5t-54 -20.5h-689q16 -113 94 -175.5t195 -62.5q115 0 181.5 44t101.5 104q0 2 22.5 -2t48 -18.5t47 -41t21.5 -69.5q0 -39 -28.5 -80 t-83 -74t-135.5 -53.5t-185 -20.5q-123 0 -222.5 37t-170 104.5t-109.5 163t-39 214.5zM317 590h490q-4 104 -66.5 167.5t-167.5 63.5q-102 0 -171.5 -64.5t-84.5 -166.5zM407 1147q-6 10 11.5 47t50 83t78 94t96.5 79q53 35 102 35q55 0 93 -33t38 -80q0 -43 -26.5 -85 t-73.5 -70q-59 -37 -122.5 -55.5t-116 -25t-88.5 -2t-42 12.5z" />
<glyph unicode="&#xea;" horiz-adv-x="1126" d="M55 492q0 115 39 212t108.5 167.5t166 110.5t209.5 40q111 0 201.5 -37t157.5 -103.5t102.5 -157.5t35.5 -202v-20q-2 -39 -15 -59.5t-54 -20.5h-689q16 -113 94 -175.5t195 -62.5q115 0 181.5 44t101.5 104q0 2 22.5 -2t48 -18.5t47 -41t21.5 -69.5q0 -39 -28.5 -80 t-83 -74t-135.5 -53.5t-185 -20.5q-123 0 -222.5 37t-170 104.5t-109.5 163t-39 214.5zM264 1204q0 47 37.5 98.5t88 96.5t102.5 76.5t83 40.5q31 -8 82 -40t102.5 -77t88 -96.5t36.5 -98.5q0 -41 -25.5 -65.5t-66.5 -24.5q-100 0 -217 207q-121 -207 -217 -207 q-41 0 -67.5 24.5t-26.5 65.5zM317 590h490q-4 104 -66.5 167.5t-167.5 63.5q-102 0 -171.5 -64.5t-84.5 -166.5z" />
<glyph unicode="&#xeb;" horiz-adv-x="1126" d="M55 492q0 115 39 212t108.5 167.5t166 110.5t209.5 40q111 0 201.5 -37t157.5 -103.5t102.5 -157.5t35.5 -202v-20q-2 -39 -15 -59.5t-54 -20.5h-689q16 -113 94 -175.5t195 -62.5q115 0 181.5 44t101.5 104q0 2 22.5 -2t48 -18.5t47 -41t21.5 -69.5q0 -39 -28.5 -80 t-83 -74t-135.5 -53.5t-185 -20.5q-123 0 -222.5 37t-170 104.5t-109.5 163t-39 214.5zM219 1262q0 72 40 109.5t105 37.5q72 0 112 -38t40 -109q0 -72 -40 -110t-106 -38q-70 0 -110.5 38t-40.5 110zM317 590h490q-4 104 -66.5 167.5t-167.5 63.5q-102 0 -171.5 -64.5 t-84.5 -166.5zM634 1262q0 72 40 109.5t106 37.5q70 0 110.5 -38t40.5 -109q0 -72 -39.5 -110t-105.5 -38q-72 0 -112 38t-40 110z" />
<glyph unicode="&#xec;" d="M-51 1372q0 47 37.5 80t93.5 33q49 0 102 -35q51 -31 96 -79t78 -94t50.5 -83t11.5 -47q-6 -8 -42 -12.5t-88.5 2t-116 25t-122.5 55.5q-47 29 -73.5 70.5t-26.5 84.5zM117 129v741q0 78 36.5 109t92.5 31h30q59 0 94.5 -30t35.5 -110v-741q0 -78 -36 -107.5t-91 -29.5 h-31q-57 0 -94 28.5t-37 108.5z" />
<glyph unicode="&#xed;" d="M108 1147q-6 10 11.5 47t50 83t78 94t96.5 79q53 35 102 35q55 0 93 -33t38 -80q0 -43 -26.5 -85t-73.5 -70q-59 -37 -122.5 -55.5t-116 -25t-88.5 -2t-42 12.5zM117 129v741q0 78 36.5 109t92.5 31h30q59 0 94.5 -30t35.5 -110v-741q0 -78 -36 -107.5t-91 -29.5h-31 q-57 0 -94 28.5t-37 108.5z" />
<glyph unicode="&#xee;" d="M-47 1204q0 47 37.5 98.5t88 96.5t102.5 76.5t83 40.5q31 -8 82 -40t102.5 -77t88 -96.5t36.5 -98.5q0 -41 -25.5 -65.5t-66.5 -24.5q-100 0 -217 207q-121 -207 -217 -207q-41 0 -67.5 24.5t-26.5 65.5zM117 129v741q0 78 36.5 109t92.5 31h30q59 0 94.5 -30t35.5 -110 v-741q0 -78 -36 -107.5t-91 -29.5h-31q-57 0 -94 28.5t-37 108.5z" />
<glyph unicode="&#xef;" d="M-92 1262q0 72 40 109.5t105 37.5q72 0 112 -38t40 -109q0 -72 -40 -110t-106 -38q-70 0 -110.5 38t-40.5 110zM117 129v741q0 78 36.5 109t92.5 31h30q59 0 94.5 -30t35.5 -110v-741q0 -78 -36 -107.5t-91 -29.5h-31q-57 0 -94 28.5t-37 108.5zM323 1262q0 72 40 109.5 t106 37.5q70 0 110.5 -38t40.5 -109q0 -72 -39.5 -110t-105.5 -38q-72 0 -112 38t-40 110z" />
<glyph unicode="&#xf0;" horiz-adv-x="1226" d="M63 463q0 104 35 191t98.5 148.5t151.5 96.5t195 35q113 0 197.5 -48t129.5 -116q-25 111 -83 202t-146 161l-203 -109q-49 -27 -86 -16.5t-53 51.5l-4 10q-16 39 -6 72t63 61l84 43q-53 23 -111.5 36t-121.5 24q-6 2 -2 27.5t26.5 56t67.5 56t119 25.5q154 0 305 -81 l209 108q51 27 82.5 12.5t54.5 -47.5l8 -8q25 -35 9.5 -70.5t-66.5 -62.5l-121 -61q117 -115 191.5 -281t74.5 -377q0 -147 -41 -263t-115.5 -198t-179 -125t-231.5 -43q-119 0 -217 33t-168 96.5t-108 153.5t-38 207zM342 467q0 -123 69.5 -194.5t186.5 -71.5 q127 0 197.5 84t70.5 217v84q-31 55 -100.5 99t-155.5 44q-129 0 -198.5 -70.5t-69.5 -191.5z" />
<glyph unicode="&#xf1;" horiz-adv-x="1189" d="M109 129v848q0 6 32.5 19.5t75.5 13.5q55 0 108.5 -34t67.5 -130q53 78 131 127t195 49q98 0 168.5 -33t116 -88t67 -131t21.5 -162v-479q0 -78 -36 -107.5t-91 -29.5h-31q-59 0 -95 28.5t-36 108.5v436q0 100 -48 157.5t-137 57.5q-78 0 -134 -35.5t-87 -95.5v-520 q0 -78 -35.5 -107.5t-91.5 -29.5h-30q-59 0 -95 28.5t-36 108.5zM258 1219q0 92 54.5 151.5t127.5 59.5q66 0 139.5 -36t147.5 -106q16 53 46 93t71 40q45 0 70.5 -28.5t25.5 -69.5q0 -92 -54.5 -150.5t-127.5 -58.5q-66 0 -139.5 35t-147.5 104q-16 -53 -46 -93t-71 -40 q-43 0 -69.5 29t-26.5 70z" />
<glyph unicode="&#xf2;" horiz-adv-x="1179" d="M55 498q0 117 39 213t109.5 164.5t170 107.5t218.5 39t216 -39t166.5 -107.5t108.5 -166t39 -213.5q0 -117 -39 -213.5t-108.5 -165t-167.5 -106.5t-219 -38q-119 0 -217.5 38t-168 106.5t-108.5 166t-39 214.5zM260 1372q0 47 37.5 80t93.5 33q49 0 102 -35 q51 -31 96 -79t78 -94t50.5 -83t11.5 -47q-6 -8 -42 -12.5t-88.5 2t-116 25t-122.5 55.5q-47 29 -73.5 70.5t-26.5 84.5zM309 498q0 -63 21.5 -118.5t58.5 -94.5t88.5 -61.5t112.5 -22.5q59 0 110.5 22.5t88 61.5t58 93t21.5 118q0 66 -20.5 121t-57 95t-88 62.5 t-112.5 22.5t-112.5 -22.5t-88.5 -62.5t-58.5 -94.5t-21.5 -119.5z" />
<glyph unicode="&#xf3;" horiz-adv-x="1179" d="M55 498q0 117 39 213t109.5 164.5t170 107.5t218.5 39t216 -39t166.5 -107.5t108.5 -166t39 -213.5q0 -117 -39 -213.5t-108.5 -165t-167.5 -106.5t-219 -38q-119 0 -217.5 38t-168 106.5t-108.5 166t-39 214.5zM309 498q0 -63 21.5 -118.5t58.5 -94.5t88.5 -61.5 t112.5 -22.5q59 0 110.5 22.5t88 61.5t58 93t21.5 118q0 66 -20.5 121t-57 95t-88 62.5t-112.5 22.5t-112.5 -22.5t-88.5 -62.5t-58.5 -94.5t-21.5 -119.5zM456 1147q-6 10 11.5 47t50 83t78 94t96.5 79q53 35 102 35q55 0 93 -33t38 -80q0 -43 -26.5 -85t-73.5 -70 q-59 -37 -122.5 -55.5t-116 -25t-88.5 -2t-42 12.5z" />
<glyph unicode="&#xf4;" horiz-adv-x="1179" d="M55 498q0 117 39 213t109.5 164.5t170 107.5t218.5 39t216 -39t166.5 -107.5t108.5 -166t39 -213.5q0 -117 -39 -213.5t-108.5 -165t-167.5 -106.5t-219 -38q-119 0 -217.5 38t-168 106.5t-108.5 166t-39 214.5zM283 1204q0 47 37.5 98.5t88 96.5t102.5 76.5t83 40.5 q31 -8 82 -40t102.5 -77t88 -96.5t36.5 -98.5q0 -41 -25.5 -65.5t-66.5 -24.5q-100 0 -217 207q-121 -207 -217 -207q-41 0 -67.5 24.5t-26.5 65.5zM309 498q0 -63 21.5 -118.5t58.5 -94.5t88.5 -61.5t112.5 -22.5q59 0 110.5 22.5t88 61.5t58 93t21.5 118q0 66 -20.5 121 t-57 95t-88 62.5t-112.5 22.5t-112.5 -22.5t-88.5 -62.5t-58.5 -94.5t-21.5 -119.5z" />
<glyph unicode="&#xf5;" horiz-adv-x="1179" d="M55 498q0 117 39 213t109.5 164.5t170 107.5t218.5 39t216 -39t166.5 -107.5t108.5 -166t39 -213.5q0 -117 -39 -213.5t-108.5 -165t-167.5 -106.5t-219 -38q-119 0 -217.5 38t-168 106.5t-108.5 166t-39 214.5zM254 1219q0 92 54.5 151.5t127.5 59.5q66 0 139.5 -36 t147.5 -106q16 53 46 93t71 40q45 0 70.5 -28.5t25.5 -69.5q0 -92 -54.5 -150.5t-127.5 -58.5q-66 0 -139.5 35t-147.5 104q-16 -53 -46 -93t-71 -40q-43 0 -69.5 29t-26.5 70zM309 498q0 -63 21.5 -118.5t58.5 -94.5t88.5 -61.5t112.5 -22.5q59 0 110.5 22.5t88 61.5t58 93 t21.5 118q0 66 -20.5 121t-57 95t-88 62.5t-112.5 22.5t-112.5 -22.5t-88.5 -62.5t-58.5 -94.5t-21.5 -119.5z" />
<glyph unicode="&#xf6;" horiz-adv-x="1179" d="M55 498q0 117 39 213t109.5 164.5t170 107.5t218.5 39t216 -39t166.5 -107.5t108.5 -166t39 -213.5q0 -117 -39 -213.5t-108.5 -165t-167.5 -106.5t-219 -38q-119 0 -217.5 38t-168 106.5t-108.5 166t-39 214.5zM238 1262q0 72 40 109.5t105 37.5q72 0 112 -38t40 -109 q0 -72 -40 -110t-106 -38q-70 0 -110.5 38t-40.5 110zM309 498q0 -63 21.5 -118.5t58.5 -94.5t88.5 -61.5t112.5 -22.5q59 0 110.5 22.5t88 61.5t58 93t21.5 118q0 66 -20.5 121t-57 95t-88 62.5t-112.5 22.5t-112.5 -22.5t-88.5 -62.5t-58.5 -94.5t-21.5 -119.5zM653 1262 q0 72 40 109.5t106 37.5q70 0 110.5 -38t40.5 -109q0 -72 -39.5 -110t-105.5 -38q-72 0 -112 38t-40 110z" />
<glyph unicode="&#xf8;" horiz-adv-x="1179" d="M39 -25q0 18 10 41t37 52l88 96q-53 68 -80.5 151.5t-27.5 180.5q0 111 39.5 207t110.5 166.5t168 111.5t212 41q82 0 152.5 -21.5t132.5 -58.5l155 174q4 4 22.5 0t40 -16.5t39 -31.5t17.5 -44q0 -18 -10 -42t-35 -52l-94 -105q51 -66 78.5 -148.5t27.5 -178.5 q0 -111 -40 -206t-110.5 -166t-167.5 -112t-212 -41q-158 0 -281 76l-153 -168q-4 -4 -22.5 0t-40 16.5t-39 32t-17.5 45.5zM309 498q0 -47 11.5 -86t31.5 -74l16 18q17 19 44.5 47.5t61.5 66.5t71 79q84 92 190 209q-63 45 -141 45q-61 0 -113.5 -22.5t-90.5 -63.5 t-59.5 -97.5t-21.5 -121.5zM455 238q63 -43 139 -43q61 0 113.5 22.5t90.5 63.5t59.5 96t21.5 121q0 90 -45 157l-16 -19q-17 -18 -42.5 -46.5t-60.5 -66.5t-70 -77q-84 -92 -190 -208z" />
<glyph unicode="&#xf9;" horiz-adv-x="1189" d="M100 387v483q0 78 36 109t91 31h31q57 0 94 -30t37 -110v-440q0 -100 48 -157.5t141 -57.5q72 0 128 36t87 95v524q0 78 35.5 109t93.5 31h28q59 0 95 -30t36 -110v-845q0 -8 -31.5 -20.5t-76.5 -12.5q-27 0 -54.5 7t-51 24.5t-41 48.5t-25.5 78q-53 -78 -133 -127.5 t-197 -49.5q-98 0 -169 32t-115 88.5t-65.5 132t-21.5 161.5zM260 1372q0 47 37.5 80t93.5 33q49 0 102 -35q51 -31 96 -79t78 -94t50.5 -83t11.5 -47q-6 -8 -42 -12.5t-88.5 2t-116 25t-122.5 55.5q-47 29 -73.5 70.5t-26.5 84.5z" />
<glyph unicode="&#xfa;" horiz-adv-x="1189" d="M100 387v483q0 78 36 109t91 31h31q57 0 94 -30t37 -110v-440q0 -100 48 -157.5t141 -57.5q72 0 128 36t87 95v524q0 78 35.5 109t93.5 31h28q59 0 95 -30t36 -110v-845q0 -8 -31.5 -20.5t-76.5 -12.5q-27 0 -54.5 7t-51 24.5t-41 48.5t-25.5 78q-53 -78 -133 -127.5 t-197 -49.5q-98 0 -169 32t-115 88.5t-65.5 132t-21.5 161.5zM469 1147q-6 10 11.5 47t50 83t78 94t96.5 79q53 35 102 35q55 0 93 -33t38 -80q0 -43 -26.5 -85t-73.5 -70q-59 -37 -122.5 -55.5t-116 -25t-88.5 -2t-42 12.5z" />
<glyph unicode="&#xfb;" horiz-adv-x="1189" d="M100 387v483q0 78 36 109t91 31h31q57 0 94 -30t37 -110v-440q0 -100 48 -157.5t141 -57.5q72 0 128 36t87 95v524q0 78 35.5 109t93.5 31h28q59 0 95 -30t36 -110v-845q0 -8 -31.5 -20.5t-76.5 -12.5q-27 0 -54.5 7t-51 24.5t-41 48.5t-25.5 78q-53 -78 -133 -127.5 t-197 -49.5q-98 0 -169 32t-115 88.5t-65.5 132t-21.5 161.5zM287 1204q0 47 37.5 98.5t88 96.5t102.5 76.5t83 40.5q31 -8 82 -40t102.5 -77t88 -96.5t36.5 -98.5q0 -41 -25.5 -65.5t-66.5 -24.5q-100 0 -217 207q-121 -207 -217 -207q-41 0 -67.5 24.5t-26.5 65.5z" />
<glyph unicode="&#xfc;" horiz-adv-x="1189" d="M100 387v483q0 78 36 109t91 31h31q57 0 94 -30t37 -110v-440q0 -100 48 -157.5t141 -57.5q72 0 128 36t87 95v524q0 78 35.5 109t93.5 31h28q59 0 95 -30t36 -110v-845q0 -8 -31.5 -20.5t-76.5 -12.5q-27 0 -54.5 7t-51 24.5t-41 48.5t-25.5 78q-53 -78 -133 -127.5 t-197 -49.5q-98 0 -169 32t-115 88.5t-65.5 132t-21.5 161.5zM242 1262q0 72 40 109.5t105 37.5q72 0 112 -38t40 -109q0 -72 -40 -110t-106 -38q-70 0 -110.5 38t-40.5 110zM657 1262q0 72 40 109.5t106 37.5q70 0 110.5 -38t40.5 -109q0 -72 -39.5 -110t-105.5 -38 q-72 0 -112 38t-40 110z" />
<glyph unicode="&#xfd;" horiz-adv-x="1087" d="M23 926q-2 6 10 20.5t33.5 27.5t51 24.5t62.5 11.5q51 0 92 -29t70 -115l217 -571l193 569q27 86 69.5 116t89.5 30q31 0 59.5 -10.5t51 -24.5t35 -26.5t10.5 -18.5l-455 -1182q-33 -82 -74.5 -111.5t-88.5 -29.5q-31 0 -61 10t-51.5 24.5t-32.5 27t-9 18.5l166 376 q-35 4 -57.5 18.5t-36.5 45.5zM409 1135q-6 10 11.5 47t50 83t78 94t96.5 79q53 35 102 35q55 0 93 -33t38 -80q0 -43 -26.5 -85t-73.5 -70q-59 -37 -122.5 -55.5t-116 -25t-88.5 -2t-42 12.5z" />
<glyph unicode="&#xfe;" horiz-adv-x="1249" d="M109 -260v1651q0 8 32.5 20t75.5 12q33 0 64.5 -10t57.5 -35.5t42 -70.5t16 -115v-346q55 82 137 129t187 47q102 0 187 -37t146.5 -105.5t95.5 -165t34 -216.5q0 -119 -34 -216.5t-95.5 -166t-147.5 -105.5t-190 -37q-106 0 -189.5 45t-130.5 111v-389 q0 -78 -35.5 -108.5t-91.5 -30.5h-30q-59 0 -95 29.5t-36 109.5zM397 442q0 -53 19.5 -97t53.5 -75.5t80 -49t97 -17.5q117 0 187.5 81t70.5 212q0 133 -70.5 214t-185.5 81q-92 0 -155.5 -44t-96.5 -120v-185z" />
<glyph unicode="&#xff;" horiz-adv-x="1087" d="M23 926q-2 6 10 20.5t33.5 27.5t51 24.5t62.5 11.5q51 0 92 -29t70 -115l217 -571l193 569q27 86 69.5 116t89.5 30q31 0 59.5 -10.5t51 -24.5t35 -26.5t10.5 -18.5l-455 -1182q-33 -82 -74.5 -111.5t-88.5 -29.5q-31 0 -61 10t-51.5 24.5t-32.5 27t-9 18.5l166 376 q-35 4 -57.5 18.5t-36.5 45.5zM195 1262q0 72 40 109.5t105 37.5q72 0 112 -38t40 -109q0 -72 -40 -110t-106 -38q-70 0 -110.5 38t-40.5 110zM610 1262q0 72 40 109.5t106 37.5q70 0 110.5 -38t40.5 -109q0 -72 -39.5 -110t-105.5 -38q-72 0 -112 38t-40 110z" />
<glyph unicode="&#x152;" horiz-adv-x="2109" d="M72 662q0 152 51 278.5t142 217.5t216 142.5t275 51.5q113 0 207 -27h933q72 0 106 -34t34 -93v-10q0 -127 -140 -127h-598q53 -47 85 -112.5t40 -149.5h316q72 0 105.5 -31t33.5 -86v-8q0 -123 -139 -123h-314q-12 -182 -129 -289h613q137 0 137 -119v-12 q0 -131 -137 -131h-946q-94 -27 -209 -27q-150 0 -276 50.5t-216 141.5t-140 218t-50 279zM373 664q0 -94 27.5 -172t78.5 -133.5t121 -86t156 -30.5t155.5 29.5t120.5 85t79 133t28 172.5q0 94 -29 171.5t-79 134t-120.5 87t-156.5 30.5t-156 -29.5t-120 -85t-77.5 -133 t-27.5 -173.5z" />
<glyph unicode="&#x153;" horiz-adv-x="1939" d="M55 498q0 117 39 213t109.5 164.5t170 107.5t218.5 39q129 0 230.5 -50t166.5 -143q68 92 170.5 142.5t231.5 50.5q111 0 201.5 -37t157.5 -103.5t102.5 -157.5t35.5 -202v-20q-2 -39 -15 -59.5t-54 -20.5h-689q16 -113 94.5 -175.5t194.5 -62.5q115 0 181.5 44 t101.5 104q0 2 22.5 -2t48 -18.5t47 -41t21.5 -69.5q0 -39 -28.5 -80t-83 -74t-135.5 -53.5t-185 -20.5q-145 0 -251.5 47.5t-172.5 139.5q-66 -88 -167 -137.5t-230 -49.5q-119 0 -217.5 38t-168 106.5t-108.5 166t-39 214.5zM309 498q0 -63 21.5 -118.5t58.5 -94.5 t88.5 -61.5t112.5 -22.5q59 0 110.5 22.5t88 61.5t58 93t21.5 118q0 66 -20.5 121t-57 95t-88 62.5t-112.5 22.5t-112.5 -22.5t-88.5 -62.5t-58.5 -94.5t-21.5 -119.5zM1130 590h490q-4 104 -66.5 167.5t-167.5 63.5q-102 0 -171.5 -64.5t-84.5 -166.5z" />
<glyph unicode="&#x178;" horiz-adv-x="1234" d="M4 1217q-4 6 5 25.5t31.5 38.5t61.5 35.5t95 16.5q41 0 77.5 -25.5t65.5 -78.5l278 -455l283 453q35 59 72 82.5t74 23.5q51 0 86.5 -16.5t59.5 -36.5t33 -38.5t5 -24.5l-461 -685v-403q0 -137 -133 -137h-41q-129 0 -129 137v403zM260 1592q0 72 40 109.5t105 37.5 q72 0 112 -38t40 -109q0 -72 -40 -110t-106 -38q-70 0 -110.5 38t-40.5 110zM675 1592q0 72 40 109.5t106 37.5q70 0 110.5 -38t40.5 -109q0 -72 -39.5 -110t-105.5 -38q-72 0 -112 38t-40 110z" />
<glyph unicode="&#x2c6;" horiz-adv-x="1024" d="M201 1204q0 47 37.5 98.5t88 96.5t102.5 76.5t83 40.5q31 -8 82 -40t102.5 -77t88 -96.5t36.5 -98.5q0 -41 -25.5 -65.5t-66.5 -24.5q-100 0 -217 207q-121 -207 -217 -207q-41 0 -67.5 24.5t-26.5 65.5z" />
<glyph unicode="&#x2dc;" horiz-adv-x="1024" d="M170 1219q0 92 54.5 151.5t127.5 59.5q66 0 139.5 -36t147.5 -106q16 53 46 93t71 40q45 0 70.5 -28.5t25.5 -69.5q0 -92 -54.5 -150.5t-127.5 -58.5q-66 0 -139.5 35t-147.5 104q-16 -53 -46 -93t-71 -40q-43 0 -69.5 29t-26.5 70z" />
<glyph unicode="&#x2000;" horiz-adv-x="923" />
<glyph unicode="&#x2001;" horiz-adv-x="1846" />
<glyph unicode="&#x2002;" horiz-adv-x="923" />
<glyph unicode="&#x2003;" horiz-adv-x="1846" />
<glyph unicode="&#x2004;" horiz-adv-x="615" />
<glyph unicode="&#x2005;" horiz-adv-x="461" />
<glyph unicode="&#x2006;" horiz-adv-x="307" />
<glyph unicode="&#x2007;" horiz-adv-x="307" />
<glyph unicode="&#x2008;" horiz-adv-x="230" />
<glyph unicode="&#x2009;" horiz-adv-x="369" />
<glyph unicode="&#x200a;" horiz-adv-x="102" />
<glyph unicode="&#x2010;" horiz-adv-x="876" d="M74 479v43q0 47 29.5 79t89.5 32h491q59 0 89 -32t30 -79v-43q0 -47 -30 -78.5t-89 -31.5h-491q-59 0 -89 31.5t-30 78.5z" />
<glyph unicode="&#x2011;" horiz-adv-x="876" d="M74 479v43q0 47 29.5 79t89.5 32h491q59 0 89 -32t30 -79v-43q0 -47 -30 -78.5t-89 -31.5h-491q-59 0 -89 31.5t-30 78.5z" />
<glyph unicode="&#x2012;" horiz-adv-x="876" d="M74 479v43q0 47 29.5 79t89.5 32h491q59 0 89 -32t30 -79v-43q0 -47 -30 -78.5t-89 -31.5h-491q-59 0 -89 31.5t-30 78.5z" />
<glyph unicode="&#x2013;" horiz-adv-x="1138" d="M74 489v25q0 45 28.5 77t90.5 32h743q63 0 91 -32t28 -77v-25q0 -47 -28 -78.5t-91 -31.5h-743q-61 0 -90 31.5t-29 78.5z" />
<glyph unicode="&#x2014;" horiz-adv-x="1474" d="M74 489v25q0 45 28.5 77t90.5 32h1089q63 0 91 -32t28 -77v-25q0 -47 -27.5 -78.5t-91.5 -31.5h-1089q-61 0 -90 31.5t-29 78.5z" />
<glyph unicode="&#x2018;" horiz-adv-x="479" d="M59 934v10q0 37 15.5 74t52.5 80l162 225q18 20 45.5 24.5t53.5 -5t41 -32t7 -53.5l-92 -323q-16 -63 -40.5 -95t-96.5 -32h-31q-53 0 -85 30.5t-32 96.5z" />
<glyph unicode="&#x2019;" horiz-adv-x="479" d="M45 899l92 326q16 63 41 94t96 31h29q53 0 85 -31t32 -94v-13q0 -78 -66 -153l-164 -225q-18 -20 -45.5 -23.5t-52 5.5t-40 30.5t-7.5 52.5z" />
<glyph unicode="&#x201a;" horiz-adv-x="479" d="M33 -158l92 326q16 63 40.5 94t96.5 31h29q53 0 85 -31t32 -94v-12q0 -78 -66 -154l-164 -225q-18 -20 -46 -23.5t-52.5 6t-39.5 31t-7 51.5z" />
<glyph unicode="&#x201c;" horiz-adv-x="890" d="M59 934v10q0 41 16.5 78t51.5 76l162 225q18 20 47 24.5t53.5 -5t39.5 -32t7 -53.5l-94 -323q-16 -66 -39.5 -96.5t-95.5 -30.5h-33q-53 0 -84 30.5t-31 96.5zM473 934v10q0 78 66 154l161 225q18 20 47 24.5t53.5 -5t39 -32t8.5 -53.5l-92 -323q-16 -66 -41 -96.5 t-97 -30.5h-30q-53 0 -84 30.5t-31 96.5z" />
<glyph unicode="&#x201d;" horiz-adv-x="890" d="M43 899l92 326q16 63 41 94t96 31h31q53 0 84 -31t31 -94v-13q0 -78 -66 -153l-162 -225q-18 -20 -45.5 -23.5t-52 5.5t-40 30.5t-9.5 52.5zM455 899l94 326q16 63 39.5 94t95.5 31h33q53 0 83.5 -31t30.5 -94v-13q0 -76 -67 -153l-162 -225q-18 -20 -46 -23.5t-53.5 5.5 t-41 30.5t-6.5 52.5z" />
<glyph unicode="&#x201e;" horiz-adv-x="890" d="M31 -158l92 326q16 63 40.5 94t96.5 31h31q53 0 84 -31t31 -94v-12q0 -78 -66 -154l-162 -225q-18 -20 -46 -23.5t-52.5 6t-39.5 31t-9 51.5zM442 -158l95 326q16 63 39.5 94t95.5 31h33q53 0 83.5 -31t30.5 -94v-12q0 -76 -67 -154l-162 -225q-18 -20 -46 -23.5t-53.5 6 t-41 31t-7.5 51.5z" />
<glyph unicode="&#x2022;" horiz-adv-x="710" d="M94 502q0 55 19.5 104t55.5 86t84 57.5t103 20.5t103.5 -20.5t83.5 -57.5t55 -86t20 -104t-20 -103.5t-56 -84t-83.5 -56t-102.5 -20.5t-103 20.5t-84 55t-55.5 83.5t-19.5 105z" />
<glyph unicode="&#x2026;" horiz-adv-x="1466" d="M88 121v29q0 135 135 135h37q139 0 139 -135v-29q0 -135 -139 -135h-37q-135 0 -135 135zM578 121v29q0 135 135 135h37q139 0 139 -135v-29q0 -135 -139 -135h-37q-135 0 -135 135zM1065 121v29q0 135 137 135h35q139 0 139 -135v-29q0 -135 -139 -135h-35 q-137 0 -137 135z" />
<glyph unicode="&#x202f;" horiz-adv-x="369" />
<glyph unicode="&#x2039;" horiz-adv-x="651" d="M68 502q0 12 42 72.5t103 126t131 118.5t125 53h4q51 0 78 -28.5t27 -73.5v-6q0 -31 -27 -64.5t-67 -68.5t-89 -67.5t-94 -61.5q45 -29 94 -61.5t89 -67.5t67 -69t27 -62v-9q0 -43 -27 -72.5t-78 -29.5h-4q-55 0 -125 53.5t-131 119t-103 125.5t-42 73z" />
<glyph unicode="&#x203a;" horiz-adv-x="651" d="M76 233v9q0 29 26.5 62.5t66.5 68.5t89 67.5t94 61.5q-45 29 -94 61.5t-89 67.5t-66.5 68.5t-26.5 64.5v6q0 45 26.5 73.5t75.5 28.5h4q57 0 127 -53t131.5 -118.5t102.5 -126t41 -72.5t-41 -72.5t-102.5 -126t-131 -119t-127.5 -53.5h-4q-49 0 -75.5 29.5t-26.5 72.5z " />
<glyph unicode="&#x205f;" horiz-adv-x="461" />
<glyph unicode="&#x20ac;" horiz-adv-x="1292" d="M47 504v20q0 35 24.5 57.5t78.5 22.5h71v119h-71q-53 0 -78 23.5t-25 58.5v20q0 35 24.5 57.5t78.5 22.5h90q47 211 193.5 329t363.5 118q102 0 184 -23.5t138.5 -60.5t86 -85t29.5 -98q0 -39 -20.5 -68.5t-47 -47t-48 -24.5t-25.5 -3q-55 80 -121 122t-176 42 q-98 0 -167 -51t-102 -150h326q53 0 77.5 -22.5t24.5 -57.5v-20q0 -35 -24.5 -58.5t-77.5 -23.5h-350v-119h350q53 0 77.5 -22.5t24.5 -57.5v-20q0 -35 -24.5 -57.5t-77.5 -22.5h-326q33 -98 105 -151.5t172 -53.5q111 0 175 44t116 130q4 4 27.5 -2t49 -24.5t47 -47 t21.5 -69.5q0 -43 -26.5 -92t-81 -90t-137.5 -68t-193 -27q-223 0 -371.5 118t-193.5 333h-88q-53 0 -78 22.5t-25 57.5z" />
<glyph unicode="&#x2122;" horiz-adv-x="1413" d="M27 1249v6q0 72 77 72h424q78 0 78 -72v-6q0 -76 -78 -75h-125v-416q0 -80 -75 -80h-25q-72 0 -72 80v416h-127q-78 0 -77 75zM686 758v491q0 84 74 84h59q35 0 51.5 -11t28.5 -38l113 -278l114 278q14 29 31 39t47 10h60q74 0 73 -84v-491q0 -39 -15 -59.5t-54 -20.5 h-25q-70 0 -69 80v327l-89 -239q-4 -16 -14 -26.5t-59 -10.5q-51 0 -59.5 10t-14.5 27l-90 235v-323q0 -39 -14.5 -59.5t-51.5 -20.5h-28q-68 0 -68 80z" />
<glyph unicode="&#x25fc;" horiz-adv-x="1013" d="M0 0v1014h1014v-1014h-1014z" />
<glyph unicode="&#xfb01;" horiz-adv-x="1304" d="M12 881v16q0 102 121 102h82v54q0 104 24.5 177t69.5 119t109.5 66.5t142.5 20.5q133 0 193.5 -48.5t60.5 -109.5q0 -27 -9 -49.5t-20.5 -37.5t-20.5 -23.5t-11 -6.5q-23 20 -59 36.5t-79 16.5q-63 0 -92.5 -37.5t-29.5 -123.5v-54h129q121 0 120 -106v-19 q0 -100 -120 -100h-119v-645q0 -80 -35 -108.5t-94 -28.5h-31q-55 0 -92 29.5t-37 107.5v645h-82q-121 0 -121 107zM883 1313q0 68 42 106.5t117 38.5q76 0 119 -38t43 -107q0 -70 -43 -109t-117 -39q-76 0 -118.5 39t-42.5 109zM897 129v741q0 78 37 109t94 31h29 q59 0 94 -30t35 -110v-741q0 -78 -35 -107.5t-92 -29.5h-29q-59 0 -96 28.5t-37 108.5z" />
<glyph unicode="&#xfb02;" horiz-adv-x="1304" d="M12 881v16q0 102 121 102h82v54q0 104 24.5 177t69.5 119t109.5 66.5t142.5 20.5q133 0 193.5 -48.5t60.5 -109.5q0 -27 -9 -49.5t-20.5 -37.5t-20.5 -23.5t-11 -6.5q-23 20 -59 36.5t-79 16.5q-63 0 -92.5 -37.5t-29.5 -123.5v-54h129q121 0 120 -106v-19 q0 -100 -120 -100h-119v-645q0 -80 -35 -108.5t-94 -28.5h-31q-55 0 -92 29.5t-37 107.5v645h-82q-121 0 -121 107zM897 129v1262q0 8 33 20t76 12q33 0 64.5 -10t57 -35.5t42 -70.5t16.5 -115v-1063q0 -78 -35 -107.5t-92 -29.5h-29q-59 0 -96 28.5t-37 108.5z" />
</font>
</defs>
</svg>
